<svg id="svg" version="1.1" xmlns="http://www.w3.org/2000/svg" xmlns:xlink="http://www.w3.org/1999/xlink" width="400" height="400" viewBox="0, 0, 400,400"><g id="svgg"><path id="path0" d="M198.272 77.461 C 197.667 78.067,197.973 161.152,198.598 165.800 C 200.455 179.604,205.287 190.793,213.627 200.600 C 217.295 204.914,241.352 228.746,249.787 236.423 C 253.520 239.820,258.650 244.490,261.187 246.800 C 263.724 249.110,266.790 251.947,268.000 253.104 C 270.871 255.850,270.575 255.979,277.893 248.800 C 283.672 243.131,296.777 230.535,305.152 222.600 C 322.487 206.176,328.084 200.491,330.829 196.520 C 333.249 193.020,337.200 186.152,337.200 185.447 C 337.200 185.179,337.347 184.789,337.528 184.580 C 337.975 184.061,339.808 179.092,340.545 176.400 C 343.287 166.385,343.233 167.584,343.110 120.000 L 343.000 77.400 330.600 77.400 L 318.200 77.400 317.986 120.400 C 317.831 151.381,317.642 163.791,317.308 164.800 C 317.054 165.570,316.550 167.370,316.189 168.800 C 313.966 177.605,308.934 184.575,296.388 196.231 C 287.891 204.125,276.801 214.524,274.593 216.669 C 274.100 217.147,273.069 218.091,272.300 218.766 L 270.902 219.993 269.454 218.843 C 268.658 218.210,265.724 215.557,262.935 212.946 C 260.145 210.336,257.565 207.930,257.200 207.600 C 256.835 207.270,255.290 205.830,253.766 204.400 C 252.243 202.970,248.567 199.561,245.598 196.825 C 231.444 183.781,228.058 179.113,224.834 168.200 C 223.527 163.776,223.462 161.810,223.232 119.800 L 223.000 77.400 210.772 77.294 C 204.047 77.236,198.422 77.311,198.272 77.461 M227.072 77.461 C 226.324 78.209,226.796 159.313,227.573 163.400 C 229.933 175.826,233.517 181.346,247.198 193.631 C 252.883 198.735,254.948 200.606,257.788 203.225 C 259.114 204.449,261.087 206.249,262.171 207.225 C 263.255 208.201,265.389 210.170,266.912 211.600 C 270.155 214.643,270.617 214.948,271.341 214.520 C 271.917 214.180,295.395 192.479,301.266 186.861 C 307.283 181.103,311.326 174.022,313.519 165.400 C 314.042 163.341,314.150 156.900,314.278 120.094 L 314.427 77.188 302.114 77.294 L 289.800 77.400 289.595 118.200 C 289.370 162.921,289.533 160.212,286.812 164.286 C 284.697 167.453,272.125 179.202,270.854 179.199 C 270.622 179.199,268.862 177.764,261.608 171.661 C 258.677 169.196,258.789 169.307,256.302 166.364 C 255.263 165.135,253.915 163.065,253.307 161.764 L 252.200 159.400 252.000 118.400 L 251.800 77.400 239.572 77.294 C 232.847 77.236,227.222 77.311,227.072 77.461 M84.600 78.229 C 69.876 81.678,60.987 90.380,58.456 103.824 C 56.935 111.904,59.232 123.563,63.756 130.730 C 64.330 131.640,64.800 132.568,64.800 132.792 C 64.800 133.016,64.951 133.200,65.136 133.200 C 65.320 133.200,65.673 133.643,65.920 134.184 C 66.598 135.673,70.993 140.564,75.642 145.005 C 85.698 154.610,133.937 202.978,133.755 203.273 C 133.644 203.453,116.373 203.600,95.376 203.600 L 57.200 203.600 57.200 214.986 C 57.200 225.833,57.237 226.391,57.974 226.786 C 59.036 227.354,169.439 227.361,172.445 226.793 C 177.633 225.812,180.000 223.532,180.000 219.516 C 180.000 214.566,182.310 217.114,133.004 167.685 C 86.058 120.622,85.869 120.419,84.860 115.912 C 83.176 108.387,90.772 101.663,100.104 102.416 C 100.597 102.456,122.015 102.469,147.700 102.444 L 194.400 102.400 194.400 90.000 L 194.400 77.600 140.700 77.633 C 96.066 77.661,86.595 77.762,84.600 78.229 M95.326 106.595 C 88.721 108.210,86.284 113.832,89.863 119.200 C 90.376 119.970,110.837 140.670,135.332 165.200 C 159.828 189.730,180.434 210.636,181.125 211.658 C 186.510 219.626,183.297 227.885,174.000 229.976 C 172.833 230.238,152.059 230.384,114.900 230.390 L 57.600 230.400 57.600 243.200 L 57.600 256.000 115.500 255.997 C 175.242 255.994,178.639 255.913,184.200 254.377 C 206.549 248.202,217.347 226.671,208.360 206.200 C 206.177 201.227,203.577 198.367,182.142 177.361 C 179.470 174.742,173.350 168.727,168.542 163.993 C 163.734 159.259,154.040 149.719,147.000 142.793 L 134.200 130.200 164.200 130.000 L 194.200 129.800 194.306 118.227 C 194.389 109.236,194.300 106.583,193.906 106.334 C 193.002 105.760,97.711 106.013,95.326 106.595 M98.304 269.423 C 93.847 270.503,90.843 272.626,89.189 275.863 C 87.886 278.415,87.459 294.164,88.600 297.600 C 90.598 303.615,99.944 307.703,106.772 305.549 C 115.981 302.644,117.200 300.518,117.200 287.364 C 117.200 278.542,117.178 278.305,116.184 276.202 C 113.547 270.628,105.664 267.639,98.304 269.423 M290.715 269.442 C 286.687 270.418,283.194 272.945,281.506 276.104 C 280.060 278.811,280.113 296.108,281.576 298.953 C 286.312 308.161,304.404 308.219,308.584 299.040 C 310.948 293.849,310.576 279.168,307.974 274.958 C 305.065 270.251,297.439 267.814,290.715 269.442 M66.395 269.717 C 54.341 272.451,54.700 287.543,66.893 290.627 C 68.272 290.975,70.105 291.443,70.967 291.666 C 72.538 292.073,74.800 293.928,74.800 294.809 C 74.800 298.106,66.324 298.301,63.651 295.065 C 62.875 294.125,62.840 294.141,59.997 296.772 C 57.007 299.539,57.041 300.084,60.347 302.469 C 67.739 307.800,78.567 305.940,82.164 298.722 C 85.727 291.571,81.790 285.624,71.903 283.224 C 66.649 281.949,64.725 279.376,67.433 277.246 C 69.201 275.855,74.714 276.643,75.829 278.446 C 76.377 279.334,82.000 275.805,82.000 274.574 C 82.000 273.896,78.272 271.040,76.326 270.227 C 74.304 269.382,69.060 269.113,66.395 269.717 M245.200 269.444 C 231.374 271.990,231.986 288.105,246.020 291.031 C 250.628 291.992,252.000 292.830,252.000 294.682 C 252.000 298.160,246.747 298.606,242.070 295.526 L 240.339 294.386 237.770 296.642 C 234.691 299.344,234.683 299.407,237.130 301.695 C 246.438 310.402,263.336 303.365,260.645 291.902 C 259.460 286.854,257.279 285.190,249.200 283.177 C 246.335 282.463,246.044 282.349,245.033 281.554 C 242.744 279.754,244.559 276.400,247.821 276.400 C 249.562 276.400,252.892 277.579,253.380 278.367 C 253.868 279.158,254.775 278.818,257.199 276.936 C 260.338 274.499,260.361 274.652,256.387 271.450 C 254.567 269.985,248.335 268.867,245.200 269.444 M122.800 287.394 L 122.800 305.200 127.000 305.200 C 130.085 305.200,131.204 305.067,131.216 304.700 C 131.224 304.425,131.269 301.770,131.316 298.800 L 131.400 293.400 138.300 293.291 L 145.200 293.181 145.200 288.991 L 145.200 284.800 138.400 284.800 C 130.698 284.800,131.589 285.257,131.382 281.200 C 131.208 277.791,130.681 278.000,139.441 278.000 L 147.228 278.000 147.114 273.900 L 147.000 269.800 134.900 269.694 L 122.800 269.588 122.800 287.394 M152.243 270.233 C 151.893 271.144,151.955 276.910,152.321 277.486 C 152.527 277.810,154.164 278.010,157.215 278.086 L 161.800 278.200 161.905 291.700 L 162.011 305.200 166.205 305.200 L 170.400 305.200 170.406 292.100 C 170.409 284.895,170.551 278.781,170.721 278.514 C 170.927 278.190,172.564 277.990,175.615 277.914 L 180.200 277.800 180.319 274.601 C 180.384 272.842,180.335 270.997,180.211 270.501 L 179.985 269.600 166.235 269.600 C 154.066 269.600,152.458 269.673,152.243 270.233 M184.000 270.381 C 184.000 270.811,184.167 271.576,184.372 272.081 C 184.576 272.587,185.206 274.305,185.772 275.900 C 186.337 277.495,187.250 280.060,187.800 281.600 C 188.350 283.140,189.264 285.705,189.832 287.300 C 190.400 288.895,191.008 290.560,191.185 291.000 C 191.593 292.020,193.299 296.799,194.183 299.400 C 194.556 300.500,195.006 301.760,195.181 302.200 C 195.357 302.640,195.702 303.501,195.948 304.114 L 196.396 305.228 200.488 305.114 L 204.580 305.000 205.632 302.000 C 209.087 292.147,211.111 286.503,215.172 275.400 C 217.469 269.120,217.701 269.600,212.370 269.600 L 207.987 269.600 207.434 270.900 C 207.130 271.615,206.121 274.630,205.193 277.600 C 204.264 280.570,203.185 283.990,202.794 285.200 C 202.403 286.410,201.766 289.155,201.379 291.300 C 200.563 295.817,200.308 296.051,199.641 292.900 C 198.204 286.116,197.836 284.670,196.618 281.000 C 195.888 278.800,194.803 275.470,194.207 273.600 C 192.887 269.459,193.124 269.614,188.100 269.606 C 184.298 269.600,184.000 269.657,184.000 270.381 M221.080 269.854 C 220.926 270.007,220.800 278.023,220.800 287.667 L 220.800 305.200 225.204 305.200 L 229.608 305.200 229.504 287.500 L 229.400 269.800 225.380 269.687 C 223.169 269.625,221.234 269.700,221.080 269.854 M266.800 287.400 L 266.800 305.200 271.000 305.200 L 275.200 305.200 275.200 287.400 L 275.200 269.600 271.000 269.600 L 266.800 269.600 266.800 287.400 M315.280 270.080 C 314.921 270.439,314.800 274.942,314.800 287.880 L 314.800 305.200 319.423 305.200 L 324.047 305.200 323.877 297.300 C 323.784 292.955,323.498 288.341,323.240 287.047 C 322.556 283.607,322.896 283.866,325.105 288.471 C 326.195 290.742,327.922 294.010,328.943 295.733 C 329.964 297.456,330.800 298.935,330.800 299.019 C 330.800 299.103,331.623 300.528,332.630 302.186 L 334.460 305.200 338.830 305.200 L 343.200 305.200 343.200 287.400 L 343.200 269.600 339.000 269.600 L 334.800 269.600 334.777 274.300 C 334.731 283.847,334.851 287.982,335.209 289.232 C 336.060 292.198,334.914 291.661,333.638 288.495 C 332.932 286.742,331.659 284.120,330.811 282.668 C 329.962 281.215,328.556 278.716,327.685 277.114 C 323.280 269.003,323.937 269.600,319.418 269.600 C 317.106 269.600,315.583 269.777,315.280 270.080 M299.091 277.935 C 299.581 278.201,300.178 278.786,300.419 279.235 C 300.976 280.276,300.941 294.589,300.379 295.640 C 298.904 298.395,291.850 298.465,289.790 295.746 C 288.926 294.605,288.952 280.532,289.821 279.292 C 291.386 277.057,296.177 276.356,299.091 277.935 M106.617 278.011 C 108.483 279.163,108.800 280.529,108.800 287.400 C 108.800 290.752,108.605 294.041,108.365 294.730 C 106.961 298.755,98.593 298.875,96.930 294.894 C 96.129 292.978,96.311 280.669,97.159 279.374 C 98.621 277.141,103.964 276.371,106.617 278.011 " stroke="none" fill="#1e74ba" fill-rule="evenodd"></path><path id="path1" d="M0.000 200.000 L 0.000 400.000 200.000 400.000 L 400.000 400.000 400.000 200.000 L 400.000 0.000 200.000 0.000 L 0.000 0.000 0.000 200.000 M194.706 89.773 C 194.788 100.045,194.700 103.017,194.306 103.267 C 194.028 103.443,171.480 103.591,144.200 103.594 C 89.523 103.601,93.707 103.418,89.311 106.005 C 85.972 107.971,84.309 114.232,86.175 117.811 C 86.516 118.465,86.796 119.225,86.798 119.500 C 86.799 119.775,86.980 120.000,87.200 120.000 C 87.420 120.000,87.600 120.180,87.600 120.400 C 87.600 120.928,84.934 118.202,119.927 153.449 C 136.936 170.582,150.976 184.731,151.127 184.891 C 151.358 185.137,165.824 199.603,167.000 200.764 C 167.220 200.981,168.570 202.308,170.000 203.712 C 174.910 208.533,178.601 212.686,179.537 214.442 C 182.110 219.272,180.645 224.750,176.347 226.373 C 175.606 226.652,174.640 227.046,174.200 227.247 C 173.724 227.466,149.781 227.571,115.000 227.507 L 56.600 227.400 56.494 215.300 C 56.395 203.966,56.433 203.200,57.094 203.196 C 57.482 203.194,74.206 203.195,94.257 203.200 C 128.768 203.208,132.000 203.140,132.000 202.415 C 132.000 202.092,87.663 157.673,79.535 149.852 C 70.301 140.969,69.200 139.872,69.200 139.567 C 69.200 139.399,68.705 138.742,68.100 138.108 C 66.727 136.667,65.856 135.571,64.936 134.126 C 64.541 133.507,64.124 132.910,64.009 132.800 C 63.817 132.615,63.115 131.339,61.811 128.800 C 61.529 128.250,61.120 127.350,60.902 126.800 C 60.685 126.250,60.318 125.350,60.087 124.800 C 59.713 123.908,59.113 122.034,57.959 118.157 C 57.324 116.023,57.081 107.211,57.585 104.600 C 57.839 103.280,58.147 101.613,58.268 100.896 C 58.389 100.179,58.649 99.494,58.844 99.373 C 59.040 99.252,59.200 98.786,59.200 98.337 C 59.200 97.570,60.296 94.838,60.779 94.400 C 60.901 94.290,61.343 93.525,61.763 92.700 C 62.183 91.875,62.666 91.200,62.836 91.200 C 63.007 91.200,63.267 90.819,63.415 90.354 C 63.747 89.307,69.364 83.729,70.425 83.392 C 70.851 83.257,71.200 82.991,71.200 82.801 C 71.200 81.526,81.989 77.686,86.826 77.239 C 88.806 77.056,90.541 76.792,90.681 76.652 C 90.822 76.512,114.261 76.443,142.768 76.499 L 194.600 76.600 194.706 89.773 M223.777 76.763 C 223.900 76.962,224.010 95.097,224.022 117.063 C 224.042 154.388,224.281 165.037,225.140 167.000 C 225.820 168.553,226.804 171.809,226.802 172.500 C 226.801 172.885,226.938 173.200,227.106 173.200 C 227.427 173.200,228.800 176.120,228.800 176.803 C 228.800 177.021,228.935 177.202,229.100 177.205 C 229.265 177.207,229.744 177.927,230.164 178.805 C 230.585 179.682,231.041 180.400,231.178 180.400 C 231.315 180.400,231.766 180.985,232.180 181.700 C 232.984 183.089,235.761 186.608,236.836 187.600 C 237.194 187.930,239.152 189.730,241.189 191.600 C 243.225 193.470,246.401 196.440,248.246 198.200 C 250.092 199.960,252.096 201.829,252.701 202.352 C 253.305 202.876,255.870 205.232,258.400 207.586 C 260.930 209.941,264.260 213.019,265.800 214.426 C 267.340 215.834,269.013 217.393,269.518 217.892 C 270.023 218.392,270.543 218.800,270.674 218.800 C 271.001 218.800,275.729 214.672,278.400 212.054 C 279.610 210.868,282.652 207.986,285.160 205.649 C 287.668 203.312,290.926 200.230,292.400 198.800 C 293.874 197.370,296.231 195.153,297.640 193.873 C 301.993 189.917,302.928 189.011,305.200 186.552 C 307.897 183.634,308.968 182.343,309.323 181.583 C 309.648 180.887,310.520 179.480,310.800 179.200 C 311.006 178.994,314.249 172.427,314.849 171.000 C 315.314 169.896,316.041 166.903,316.283 165.097 C 316.394 164.271,316.645 163.495,316.842 163.374 C 317.049 163.246,317.200 145.045,317.200 120.256 C 317.200 87.426,317.313 77.247,317.680 76.880 C 318.284 76.276,343.419 76.184,343.791 76.785 C 344.166 77.392,343.982 158.964,343.596 163.200 C 343.180 167.763,342.542 172.089,342.004 174.000 C 341.061 177.348,340.306 179.857,340.018 180.600 C 338.821 183.681,337.887 185.780,335.796 190.078 C 334.973 191.772,333.962 193.519,333.550 193.962 C 333.137 194.404,332.800 194.859,332.800 194.972 C 332.800 195.387,330.235 198.800,329.923 198.800 C 329.745 198.800,329.600 198.979,329.600 199.197 C 329.600 199.972,321.933 207.827,314.119 215.056 C 312.184 216.847,308.431 220.447,305.779 223.056 C 303.128 225.665,299.708 228.932,298.179 230.316 C 295.499 232.742,295.178 233.041,294.113 234.111 C 292.244 235.989,279.273 248.584,275.599 252.088 C 270.584 256.871,270.821 256.806,268.000 254.158 C 267.230 253.435,266.048 252.339,265.372 251.722 C 264.697 251.105,262.537 249.127,260.572 247.328 C 258.608 245.528,256.550 243.674,256.000 243.208 C 254.928 242.300,254.337 241.761,246.990 235.000 C 239.182 227.815,218.782 207.639,214.432 202.800 C 213.740 202.030,212.762 200.950,212.260 200.400 C 210.887 198.898,209.200 196.505,209.200 196.060 C 209.200 195.844,209.050 195.607,208.867 195.533 C 208.337 195.321,205.644 190.916,205.366 189.807 C 205.227 189.253,204.997 188.800,204.854 188.800 C 204.712 188.800,204.347 188.215,204.044 187.500 C 203.741 186.785,203.229 185.570,202.906 184.800 C 202.583 184.030,202.161 183.040,201.969 182.600 C 201.196 180.828,199.659 175.626,199.075 172.800 C 198.733 171.150,198.232 168.900,197.961 167.800 C 197.464 165.781,196.892 78.181,197.368 76.939 C 197.613 76.300,223.384 76.128,223.777 76.763 M252.800 118.000 L 253.000 159.400 254.000 161.400 C 254.550 162.500,255.225 163.638,255.500 163.929 C 255.775 164.219,256.000 164.590,256.000 164.751 C 256.000 165.120,261.505 170.807,262.637 171.608 C 263.795 172.427,267.194 175.231,268.204 176.201 C 270.025 177.949,271.078 178.429,271.631 177.762 C 271.909 177.428,274.130 175.500,276.568 173.478 C 284.860 166.600,286.748 164.195,288.748 157.956 C 289.086 156.901,289.208 145.893,289.200 117.156 C 289.194 95.510,289.191 77.485,289.194 77.100 C 289.200 76.448,290.078 76.400,302.000 76.400 L 314.800 76.400 314.790 119.700 C 314.784 149.141,314.644 163.512,314.353 164.600 C 314.118 165.480,313.833 166.785,313.719 167.500 C 313.605 168.215,313.375 168.800,313.207 168.800 C 313.040 168.800,312.790 169.499,312.654 170.354 C 312.266 172.777,308.275 180.266,305.821 183.173 C 304.628 184.586,297.744 191.346,294.184 194.600 C 292.499 196.140,290.443 198.030,289.616 198.800 C 288.789 199.570,286.356 201.820,284.208 203.800 C 282.061 205.780,278.824 208.795,277.015 210.499 C 270.104 217.012,271.653 217.111,263.600 209.644 C 261.510 207.706,258.815 205.239,257.611 204.160 C 256.407 203.082,254.408 201.193,253.169 199.963 C 251.930 198.733,250.518 197.448,250.033 197.108 C 248.047 195.717,235.200 183.500,235.200 183.002 C 235.200 182.872,234.750 182.280,234.200 181.687 C 233.650 181.093,233.200 180.396,233.200 180.137 C 233.200 179.879,233.065 179.607,232.899 179.533 C 232.457 179.337,229.200 172.939,229.200 172.266 C 229.200 171.950,228.933 171.177,228.607 170.548 C 228.281 169.919,227.820 168.414,227.584 167.202 C 227.347 165.991,226.984 164.447,226.777 163.772 C 226.345 162.364,226.243 77.090,226.672 76.661 C 226.822 76.512,232.717 76.437,239.772 76.495 L 252.600 76.600 252.800 118.000 M194.800 118.000 L 194.800 130.400 165.600 130.400 C 145.975 130.400,136.400 130.534,136.400 130.809 C 136.400 131.278,139.235 134.496,140.966 135.992 C 142.110 136.981,152.728 147.360,169.210 163.600 C 173.788 168.110,183.668 177.823,191.166 185.184 C 198.665 192.544,204.800 198.784,204.800 199.050 C 204.800 199.316,204.950 199.593,205.133 199.667 C 205.663 199.879,208.356 204.284,208.634 205.393 C 208.773 205.947,209.047 206.400,209.243 206.400 C 209.440 206.400,209.600 206.749,209.600 207.176 C 209.600 207.603,209.764 208.054,209.965 208.178 C 210.166 208.303,210.458 209.161,210.615 210.087 C 210.771 211.012,211.042 212.046,211.216 212.385 C 212.607 215.081,212.600 226.159,211.206 229.400 C 211.017 229.840,210.744 230.739,210.599 231.398 C 210.276 232.869,207.591 238.549,207.132 238.733 C 206.950 238.807,206.800 239.079,206.800 239.337 C 206.800 239.596,206.350 240.293,205.800 240.887 C 205.250 241.480,204.800 242.108,204.800 242.283 C 204.799 243.746,196.771 250.042,192.200 252.163 C 190.440 252.980,188.723 253.796,188.385 253.975 C 188.046 254.154,186.966 254.434,185.985 254.596 C 185.003 254.758,184.020 255.030,183.800 255.200 C 183.580 255.371,182.590 255.645,181.600 255.811 C 178.456 256.336,57.574 256.477,56.947 255.956 C 56.153 255.297,56.139 230.714,56.933 230.055 C 57.316 229.738,74.026 229.583,116.233 229.507 L 175.000 229.400 177.000 228.239 C 178.100 227.601,179.060 226.926,179.133 226.739 C 179.207 226.553,179.445 226.400,179.662 226.400 C 180.150 226.400,181.200 225.382,181.200 224.909 C 181.200 224.717,181.410 224.350,181.667 224.093 C 182.884 222.876,183.828 216.800,182.800 216.800 C 182.580 216.800,182.400 216.455,182.400 216.032 C 182.400 215.312,181.499 213.339,180.600 212.092 C 179.406 210.435,171.307 202.246,135.806 166.800 C 114.322 145.350,96.533 127.598,96.273 127.351 C 93.690 124.897,89.200 119.836,89.200 119.379 C 89.200 119.061,89.065 118.799,88.900 118.797 C 88.257 118.790,87.600 116.532,87.600 114.331 C 87.600 110.424,90.016 107.321,94.000 106.108 C 94.955 105.817,111.190 105.669,145.100 105.641 L 194.800 105.600 194.800 118.000 M75.200 269.120 C 77.541 269.667,78.658 270.269,80.932 272.207 C 83.538 274.429,83.431 275.120,80.100 277.579 C 77.005 279.864,76.374 279.980,74.564 278.600 C 73.843 278.050,72.982 277.600,72.650 277.600 C 72.319 277.600,71.936 277.420,71.800 277.200 C 71.070 276.019,66.800 277.946,66.800 279.456 C 66.800 280.221,68.367 281.569,69.276 281.587 C 69.648 281.594,70.052 281.760,70.173 281.956 C 70.294 282.151,70.979 282.405,71.696 282.519 C 78.853 283.656,83.582 287.231,83.606 291.521 C 83.609 292.115,83.758 292.830,83.936 293.110 C 84.289 293.666,83.631 297.531,82.881 299.309 C 80.840 304.148,70.538 308.045,65.319 305.951 C 61.024 304.229,56.395 300.834,56.402 299.413 C 56.405 298.929,60.187 295.200,60.675 295.200 C 60.858 295.200,61.232 294.840,61.507 294.400 C 62.123 293.414,63.097 293.374,63.953 294.300 C 64.309 294.685,65.320 295.335,66.200 295.744 C 67.080 296.154,68.113 296.649,68.495 296.844 C 71.069 298.163,75.111 295.015,72.932 293.389 C 71.959 292.663,68.702 291.600,67.448 291.600 C 66.898 291.600,66.351 291.444,66.233 291.254 C 66.116 291.064,65.385 290.805,64.610 290.679 C 62.765 290.380,59.914 288.304,58.518 286.244 C 56.613 283.432,56.906 273.600,58.894 273.600 C 59.062 273.600,59.202 273.375,59.205 273.100 C 59.214 272.163,63.577 269.504,65.452 269.293 C 66.424 269.183,67.323 268.924,67.451 268.717 C 67.728 268.269,72.650 268.525,75.200 269.120 M108.200 269.004 C 111.219 269.902,112.177 270.431,114.434 272.446 C 119.045 276.563,119.822 296.760,115.546 301.351 C 115.136 301.791,114.800 302.297,114.800 302.475 C 114.800 302.654,114.545 302.800,114.233 302.800 C 113.922 302.800,113.607 302.953,113.533 303.140 C 112.859 304.861,107.333 306.597,102.570 306.584 C 95.920 306.566,91.185 304.238,88.497 299.666 L 87.400 297.800 87.402 287.600 C 87.404 275.992,87.440 275.823,90.626 272.637 C 92.499 270.764,95.288 269.200,96.754 269.200 C 97.194 269.200,97.664 269.020,97.800 268.800 C 98.188 268.173,105.916 268.324,108.200 269.004 M251.972 268.848 C 256.732 270.341,260.800 273.174,260.800 274.995 C 260.800 275.082,259.675 276.013,258.300 277.063 C 256.925 278.114,255.740 279.114,255.667 279.287 C 255.494 279.693,253.200 279.697,253.200 279.291 C 253.200 279.121,252.525 278.651,251.700 278.247 C 250.875 277.842,249.887 277.351,249.505 277.156 C 247.615 276.188,244.664 277.704,244.878 279.533 C 245.027 280.813,247.565 282.384,249.500 282.393 C 250.215 282.397,250.800 282.557,250.800 282.748 C 250.800 282.940,251.655 283.213,252.700 283.356 C 258.835 284.191,263.781 292.369,261.259 297.505 C 261.071 297.887,260.586 298.888,260.181 299.728 C 259.331 301.490,256.255 304.220,254.673 304.617 C 254.079 304.767,253.494 305.049,253.373 305.244 C 253.252 305.440,252.634 305.600,252.000 305.600 C 251.366 305.600,250.736 305.780,250.600 306.000 C 249.293 308.114,239.934 305.457,236.129 301.891 C 233.842 299.747,233.924 299.262,237.100 296.214 C 240.010 293.421,240.680 293.163,241.803 294.403 C 242.679 295.371,244.654 296.400,245.638 296.400 C 246.031 296.400,246.464 296.580,246.600 296.800 C 247.122 297.645,249.048 297.124,250.900 295.638 C 252.609 294.266,248.745 291.600,245.048 291.600 C 244.498 291.600,243.936 291.420,243.800 291.200 C 243.664 290.980,243.209 290.800,242.789 290.800 C 240.118 290.800,235.200 286.242,235.200 283.768 C 235.200 283.261,235.020 282.736,234.800 282.600 C 234.299 282.290,234.273 278.230,234.767 277.295 C 234.968 276.913,235.366 275.970,235.652 275.200 C 236.369 273.262,239.281 270.578,241.526 269.784 C 242.557 269.420,243.760 268.971,244.200 268.788 C 245.383 268.294,250.328 268.333,251.972 268.848 M299.800 268.800 C 299.936 269.020,300.374 269.200,300.773 269.200 C 303.127 269.200,307.701 272.478,308.944 275.056 C 309.354 275.905,309.849 276.913,310.044 277.295 C 310.240 277.677,310.400 282.216,310.400 287.383 C 310.400 300.848,309.937 301.720,300.439 306.152 C 298.938 306.852,291.351 306.660,289.069 305.863 C 284.531 304.278,281.800 301.849,280.425 298.174 C 279.131 294.716,279.315 278.811,280.682 275.962 C 282.357 272.469,286.568 269.200,289.390 269.200 C 289.920 269.200,290.464 269.020,290.600 268.800 C 290.740 268.573,292.730 268.400,295.200 268.400 C 297.670 268.400,299.660 268.573,299.800 268.800 M217.600 270.400 C 217.600 271.034,217.440 271.651,217.245 271.772 C 217.050 271.893,216.768 272.645,216.618 273.445 C 216.468 274.244,216.178 275.236,215.973 275.649 C 215.768 276.062,215.443 276.721,215.251 277.113 C 215.059 277.505,214.775 278.403,214.620 279.109 C 214.465 279.814,214.172 280.494,213.969 280.619 C 213.766 280.745,213.600 281.287,213.600 281.824 C 213.600 282.361,213.444 282.800,213.252 282.800 C 213.061 282.800,212.808 283.396,212.690 284.125 C 212.571 284.854,212.111 286.249,211.668 287.225 C 211.224 288.201,210.744 289.577,210.602 290.283 C 210.460 290.988,210.018 292.248,209.619 293.083 C 209.220 293.917,208.762 295.230,208.601 296.000 C 208.440 296.770,208.162 297.583,207.983 297.806 C 207.804 298.029,207.121 299.829,206.465 301.806 L 205.271 305.400 200.395 305.400 L 195.519 305.400 194.933 303.600 C 194.611 302.610,194.089 301.233,193.774 300.540 C 193.458 299.846,193.200 298.989,193.200 298.634 C 193.200 298.279,193.020 297.632,192.800 297.195 C 192.580 296.758,192.220 296.042,192.000 295.605 C 191.780 295.168,191.600 294.611,191.600 294.366 C 191.600 294.121,191.347 293.354,191.038 292.660 C 190.728 291.967,190.169 290.500,189.795 289.400 C 189.421 288.300,188.971 287.040,188.795 286.600 C 187.716 283.907,187.200 282.287,187.200 281.592 C 187.200 281.156,187.065 280.800,186.900 280.800 C 186.735 280.800,186.248 279.675,185.819 278.300 C 185.389 276.925,184.915 275.530,184.765 275.200 C 182.042 269.193,182.038 269.200,188.375 269.200 L 193.503 269.200 193.925 270.300 C 194.157 270.905,194.460 271.850,194.598 272.400 C 194.737 272.950,195.010 273.760,195.205 274.200 C 195.880 275.723,196.800 278.831,196.800 279.590 C 196.800 280.010,196.980 280.464,197.200 280.600 C 197.420 280.736,197.600 281.199,197.600 281.629 C 197.600 282.059,197.772 282.723,197.983 283.105 C 198.586 284.202,199.600 288.206,199.600 289.495 C 199.600 290.139,199.718 290.785,199.863 290.930 C 200.385 291.452,201.200 290.274,201.200 288.997 C 201.200 287.813,201.996 284.639,202.804 282.600 C 202.979 282.160,203.877 279.370,204.800 276.400 C 207.267 268.464,206.480 269.243,212.161 269.112 C 217.830 268.981,217.600 268.926,217.600 270.400 M230.304 287.624 L 230.200 305.800 225.607 306.066 C 223.081 306.212,220.876 306.247,220.707 306.143 C 220.538 306.038,220.400 297.689,220.400 287.589 L 220.400 269.225 225.100 269.113 C 227.685 269.051,229.937 269.101,230.104 269.224 C 230.271 269.347,230.361 277.627,230.304 287.624 M147.600 274.000 L 147.600 278.800 139.981 278.800 L 132.362 278.800 132.481 281.300 L 132.600 283.800 139.100 283.910 L 145.600 284.020 145.600 288.810 L 145.600 293.600 139.000 293.600 L 132.400 293.600 132.400 299.377 C 132.400 306.684,132.532 306.535,126.402 306.147 C 124.087 306.000,122.068 305.683,121.906 305.441 C 121.554 304.913,121.494 270.743,121.843 269.833 C 122.057 269.274,123.579 269.200,134.843 269.200 L 147.600 269.200 147.600 274.000 M180.800 274.000 L 180.800 278.800 176.200 278.800 L 171.600 278.800 171.600 291.724 C 171.600 307.390,172.123 306.066,165.995 305.914 L 161.400 305.800 161.200 292.400 L 161.000 279.000 156.400 278.800 L 151.800 278.600 151.687 273.900 L 151.575 269.200 166.187 269.200 L 180.800 269.200 180.800 274.000 M275.747 269.514 C 276.172 270.202,276.128 305.232,275.702 305.658 C 275.087 306.273,266.323 306.119,265.921 305.486 C 265.559 304.917,265.484 270.767,265.843 269.833 C 266.106 269.148,275.337 268.851,275.747 269.514 M324.622 270.068 C 324.773 270.546,325.505 271.887,326.249 273.049 C 326.992 274.211,327.600 275.265,327.600 275.391 C 327.600 275.517,328.279 276.740,329.109 278.110 C 331.620 282.254,332.016 282.943,332.722 284.400 C 333.388 285.776,333.403 285.659,333.600 277.600 L 333.800 269.400 338.900 269.288 L 344.000 269.176 343.992 272.688 C 343.987 274.620,344.028 282.702,344.082 290.650 C 344.156 301.390,344.058 305.248,343.703 305.676 C 342.158 307.537,332.416 305.655,332.402 303.492 C 332.401 303.323,331.979 302.513,331.464 301.692 C 330.539 300.219,329.216 297.911,327.751 295.218 C 327.338 294.458,326.780 293.595,326.511 293.300 C 326.242 293.006,325.808 292.052,325.547 291.182 C 324.657 288.212,324.400 289.599,324.400 297.367 C 324.400 301.639,324.308 305.374,324.196 305.667 C 323.966 306.265,315.810 306.441,314.900 305.868 C 314.512 305.623,314.400 301.483,314.400 287.376 L 314.400 269.200 319.373 269.200 C 324.125 269.200,324.358 269.239,324.622 270.068 M99.800 278.309 C 97.682 279.411,97.626 279.647,97.613 287.529 C 97.602 293.817,97.694 294.951,98.260 295.517 C 100.508 297.765,104.186 297.817,106.900 295.638 C 107.707 294.990,107.970 281.038,107.202 279.604 C 106.212 277.754,102.212 277.054,99.800 278.309 M292.187 278.287 C 288.456 280.079,288.304 293.768,291.986 296.390 C 294.165 297.941,297.712 297.301,299.687 295.000 C 300.714 293.803,300.714 280.997,299.687 279.800 C 297.819 277.623,294.825 277.019,292.187 278.287 " stroke="none" fill="#fbfbfb" fill-rule="evenodd"></path><path id="path2" d="M197.867 77.067 C 197.720 77.213,197.644 96.248,197.697 119.367 L 197.794 161.400 197.997 119.400 L 198.200 77.400 210.600 77.400 L 223.000 77.400 223.200 119.867 C 223.310 143.224,223.490 162.424,223.600 162.534 C 223.849 162.782,223.656 77.989,223.406 77.300 C 223.210 76.760,198.400 76.533,197.867 77.067 M226.643 77.433 C 226.509 77.781,226.444 96.366,226.497 118.733 L 226.594 159.400 226.797 118.400 L 227.000 77.400 239.400 77.400 L 251.800 77.400 252.000 118.400 L 252.200 159.400 253.307 161.764 C 253.915 163.065,255.263 165.135,256.302 166.364 C 258.785 169.303,258.675 169.193,261.599 171.661 C 262.993 172.838,264.733 174.308,265.467 174.929 C 266.200 175.550,266.791 175.910,266.779 175.729 C 266.768 175.548,266.003 174.796,265.079 174.059 C 259.057 169.248,255.155 164.907,253.342 161.000 C 252.637 159.479,252.595 157.375,252.495 118.454 C 252.438 95.934,252.292 77.349,252.172 77.154 C 251.734 76.447,226.917 76.718,226.643 77.433 M289.392 77.294 C 289.138 77.979,288.947 159.587,289.200 159.334 C 289.310 159.224,289.490 140.743,289.600 118.267 L 289.800 77.400 302.114 77.294 L 314.427 77.188 314.314 120.241 C 314.251 143.921,314.336 162.483,314.502 161.491 C 314.668 160.500,314.758 141.083,314.702 118.344 L 314.600 77.000 302.090 76.894 C 292.294 76.812,289.539 76.898,289.392 77.294 M317.808 77.694 C 317.693 78.192,317.545 97.680,317.481 121.000 C 317.416 144.320,317.231 163.850,317.070 164.400 L 316.777 165.400 317.289 164.400 C 317.691 163.614,317.843 154.199,318.000 120.400 L 318.200 77.400 330.600 77.400 L 343.000 77.400 343.000 121.915 C 343.000 146.398,343.136 165.776,343.302 164.976 C 343.468 164.177,343.558 144.055,343.502 120.261 L 343.400 77.000 330.709 76.894 L 318.018 76.789 317.808 77.694 M86.076 77.539 C 85.567 77.683,109.732 77.752,139.776 77.693 L 194.400 77.586 194.400 89.991 L 194.400 102.397 147.800 102.501 L 101.200 102.605 147.900 102.602 L 194.600 102.600 194.600 90.000 L 194.600 77.400 140.800 77.339 C 111.210 77.306,86.584 77.396,86.076 77.539 M80.460 78.849 C 79.063 79.292,77.995 79.728,78.087 79.820 C 78.178 79.911,78.871 79.794,79.626 79.560 C 80.382 79.325,81.900 78.898,83.000 78.611 C 84.211 78.294,84.606 78.080,84.000 78.067 C 83.450 78.055,81.857 78.407,80.460 78.849 M74.659 81.246 C 72.247 82.491,68.831 84.800,69.402 84.800 C 69.579 84.800,70.281 84.375,70.962 83.856 C 71.643 83.337,73.460 82.266,75.000 81.476 C 76.540 80.686,77.620 80.039,77.400 80.039 C 77.180 80.039,75.947 80.582,74.659 81.246 M66.343 87.500 C 62.884 91.064,59.930 96.028,59.023 99.799 C 58.580 101.644,59.001 100.899,60.299 97.544 C 61.762 93.760,64.535 89.532,67.168 87.069 C 68.267 86.041,69.033 85.200,68.870 85.200 C 68.708 85.200,67.571 86.235,66.343 87.500 M58.218 103.018 C 58.065 104.039,58.030 104.963,58.140 105.073 C 58.250 105.183,58.465 104.439,58.618 103.418 C 58.771 102.398,58.806 101.473,58.696 101.363 C 58.586 101.253,58.371 101.998,58.218 103.018 M98.300 102.682 C 98.795 102.778,99.605 102.778,100.100 102.682 C 100.595 102.587,100.190 102.509,99.200 102.509 C 98.210 102.509,97.805 102.587,98.300 102.682 M93.753 103.180 C 89.351 104.231,83.240 110.174,84.878 111.811 C 84.985 111.918,85.277 111.321,85.527 110.484 C 86.516 107.186,89.889 104.529,94.528 103.395 C 95.668 103.116,96.240 102.887,95.800 102.885 C 95.360 102.883,94.439 103.016,93.753 103.180 M94.397 106.374 C 92.105 107.071,87.710 110.400,89.082 110.400 C 89.320 110.400,89.615 110.138,89.737 109.819 C 90.110 108.847,93.028 107.155,95.277 106.606 C 96.445 106.322,96.950 106.084,96.400 106.079 C 95.850 106.073,94.949 106.206,94.397 106.374 M193.912 106.337 C 194.313 106.592,194.400 109.188,194.312 118.331 C 194.250 124.749,194.335 130.000,194.500 130.000 C 194.665 130.000,194.800 124.600,194.800 118.000 C 194.800 106.836,194.751 106.000,194.100 106.006 C 193.587 106.011,193.537 106.099,193.912 106.337 M57.742 109.800 C 57.741 111.780,57.808 112.640,57.892 111.712 C 57.976 110.784,57.977 109.164,57.895 108.112 C 57.812 107.060,57.743 107.820,57.742 109.800 M88.249 111.415 C 88.112 111.773,88.016 112.456,88.036 112.933 C 88.062 113.547,88.185 113.408,88.459 112.456 C 88.857 111.072,88.694 110.258,88.249 111.415 M58.204 116.523 C 58.419 118.739,59.574 122.959,59.881 122.652 C 59.995 122.538,59.804 121.490,59.455 120.322 C 59.107 119.155,58.641 117.390,58.420 116.400 L 58.018 114.600 58.204 116.523 M88.068 115.400 C 88.062 115.840,88.211 116.560,88.400 117.000 C 88.838 118.019,88.838 116.968,88.400 115.600 C 88.143 114.796,88.077 114.757,88.068 115.400 M85.050 116.400 C 85.306 117.845,86.204 119.781,87.509 121.701 C 87.921 122.307,108.407 143.007,133.033 167.701 C 182.209 217.014,179.972 214.549,180.025 219.475 C 180.046 221.368,180.122 221.623,180.433 220.844 C 181.173 218.994,179.736 214.689,177.480 212.000 C 176.833 211.230,156.555 190.795,132.417 166.588 C 88.084 122.131,86.872 120.851,85.542 117.091 C 85.006 115.577,84.871 115.386,85.050 116.400 M89.440 119.300 C 90.156 120.708,109.903 140.800,110.571 140.800 C 110.795 140.800,106.428 136.250,100.866 130.690 C 95.305 125.129,90.387 119.999,89.938 119.290 C 88.883 117.623,88.591 117.629,89.440 119.300 M60.204 124.000 C 61.061 126.818,64.272 133.061,64.664 132.669 C 64.771 132.563,64.375 131.711,63.785 130.776 C 63.194 129.841,62.171 127.799,61.511 126.238 C 60.255 123.270,59.687 122.297,60.204 124.000 M134.680 130.559 C 134.856 130.867,140.580 136.578,147.400 143.251 C 160.248 155.821,176.729 172.022,178.046 173.375 C 178.461 173.802,178.800 174.033,178.800 173.888 C 178.800 173.643,167.740 162.656,144.909 140.220 C 139.578 134.982,135.314 130.539,135.432 130.348 C 135.550 130.157,135.358 130.000,135.004 130.000 C 134.567 130.000,134.463 130.179,134.680 130.559 M65.600 134.400 C 66.698 135.942,66.958 135.943,66.081 134.403 C 65.707 133.744,65.253 133.204,65.073 133.203 C 64.893 133.201,65.130 133.740,65.600 134.400 M67.593 137.000 C 69.119 139.092,72.515 142.819,72.714 142.620 C 72.819 142.515,72.095 141.567,71.104 140.514 C 70.114 139.461,68.722 137.970,68.011 137.200 C 66.940 136.040,66.868 136.006,67.593 137.000 M118.400 149.000 C 122.686 153.290,126.365 156.800,126.576 156.800 C 126.787 156.800,123.459 153.292,119.180 149.004 C 114.901 144.715,111.222 141.205,111.004 141.204 C 110.786 141.202,114.114 144.710,118.400 149.000 M73.200 142.828 C 73.200 142.943,77.655 147.439,83.100 152.818 C 88.545 158.197,102.137 171.689,113.305 182.799 L 133.611 203.000 95.305 203.200 L 57.000 203.400 56.894 215.173 C 56.811 224.324,56.900 227.017,57.294 227.266 C 57.885 227.641,170.428 227.628,172.179 227.253 C 172.827 227.114,147.577 227.049,116.067 227.108 C 76.447 227.183,58.534 227.086,57.989 226.794 C 57.232 226.389,57.200 225.907,57.200 214.986 L 57.200 203.600 95.376 203.600 C 116.373 203.600,133.643 203.454,133.754 203.275 C 133.864 203.096,121.860 190.900,107.077 176.173 C 78.678 147.880,73.200 142.488,73.200 142.828 M153.489 184.100 C 173.998 204.620,180.661 211.522,181.580 213.200 C 182.243 214.410,182.789 215.115,182.793 214.766 C 182.813 212.981,128.783 157.240,127.001 157.207 C 126.782 157.203,138.701 169.305,153.489 184.100 M288.432 160.419 C 288.310 162.807,283.850 167.912,276.501 174.075 L 270.802 178.855 268.901 177.382 L 267.000 175.910 268.751 177.555 C 270.964 179.634,270.385 179.807,275.454 175.548 C 284.399 168.032,289.441 162.197,288.655 160.270 C 288.542 159.993,288.450 160.053,288.432 160.419 M227.076 162.800 C 227.201 164.230,227.459 165.670,227.651 166.000 C 228.025 166.646,227.741 164.006,227.177 161.600 C 226.952 160.640,226.920 161.017,227.076 162.800 M198.080 164.000 C 198.068 164.770,198.203 166.210,198.380 167.200 C 198.676 168.867,198.701 168.897,198.720 167.600 C 198.732 166.830,198.597 165.390,198.420 164.400 C 198.124 162.733,198.099 162.703,198.080 164.000 M224.224 165.200 C 224.665 169.020,227.986 177.414,230.159 180.200 C 230.502 180.640,229.919 179.290,228.865 177.200 C 227.133 173.768,225.534 169.378,224.422 165.000 L 224.016 163.400 224.224 165.200 M313.406 165.300 C 313.261 166.235,313.056 167.360,312.952 167.800 C 312.802 168.430,312.843 168.472,313.143 168.000 C 313.577 167.316,314.200 163.600,313.881 163.600 C 313.765 163.600,313.551 164.365,313.406 165.300 M316.449 166.200 C 316.416 166.640,316.296 167.450,316.183 168.000 L 315.977 169.000 316.406 168.019 C 316.642 167.479,316.761 166.669,316.672 166.219 C 316.513 165.421,316.507 165.421,316.449 166.200 M342.464 167.450 C 342.429 167.918,342.305 168.908,342.189 169.650 C 341.996 170.886,342.015 170.917,342.408 170.014 C 342.645 169.472,342.768 168.482,342.683 167.814 C 342.591 167.097,342.502 166.948,342.464 167.450 M228.224 168.376 C 228.551 170.023,231.142 176.317,231.614 176.608 C 231.797 176.722,231.238 175.182,230.373 173.187 C 229.508 171.192,228.797 169.254,228.794 168.880 C 228.791 168.506,228.600 167.930,228.370 167.600 C 228.062 167.158,228.023 167.362,228.224 168.376 M312.200 169.600 C 312.050 170.073,312.017 170.550,312.127 170.660 C 312.237 170.770,312.450 170.473,312.600 170.000 C 312.750 169.527,312.783 169.050,312.673 168.940 C 312.563 168.830,312.350 169.127,312.200 169.600 M199.051 170.800 C 199.427 173.714,201.496 181.037,201.844 180.689 C 201.922 180.611,201.790 179.929,201.549 179.174 C 201.309 178.418,200.596 175.820,199.966 173.400 C 199.335 170.980,198.923 169.810,199.051 170.800 M315.017 171.263 C 312.225 179.799,309.098 183.690,292.578 199.182 C 287.310 204.123,281.429 209.690,279.509 211.553 C 277.589 213.417,275.794 215.080,275.521 215.249 C 275.247 215.418,275.112 215.645,275.220 215.754 C 275.329 215.862,276.766 214.657,278.414 213.075 C 281.233 210.371,288.669 203.402,296.388 196.231 C 302.465 190.585,307.763 185.060,309.650 182.400 C 312.358 178.582,316.499 169.965,315.909 169.376 C 315.795 169.262,315.394 170.111,315.017 171.263 M310.502 173.956 C 308.571 178.328,305.067 183.223,301.266 186.861 C 295.395 192.479,271.917 214.180,271.341 214.520 C 270.617 214.948,270.155 214.643,266.912 211.600 C 265.389 210.170,263.255 208.201,262.171 207.225 C 261.087 206.249,259.114 204.449,257.788 203.225 C 254.892 200.554,252.753 198.617,247.198 193.634 C 240.690 187.797,235.444 182.306,233.821 179.634 C 232.393 177.283,231.476 176.259,232.447 178.100 C 234.676 182.326,239.297 187.289,248.251 195.073 C 249.893 196.500,256.551 202.615,257.368 203.446 C 257.826 203.912,261.048 206.848,264.529 209.971 L 270.858 215.649 272.729 213.961 C 273.758 213.033,275.860 211.086,277.400 209.634 C 279.736 207.433,289.535 198.354,291.037 197.000 C 299.196 189.642,304.015 184.845,306.411 181.696 C 308.319 179.188,312.290 171.757,311.920 171.387 C 311.812 171.279,311.174 172.435,310.502 173.956 M341.383 173.100 C 341.244 173.925,341.047 174.960,340.946 175.400 C 340.802 176.026,340.843 176.069,341.136 175.600 C 341.578 174.892,342.168 171.600,341.853 171.600 C 341.734 171.600,341.522 172.275,341.383 173.100 M179.200 174.136 C 179.200 174.302,180.010 175.259,181.000 176.264 C 181.990 177.268,182.800 177.927,182.800 177.728 C 182.800 177.529,181.990 176.572,181.000 175.600 C 180.010 174.628,179.200 173.969,179.200 174.136 M340.229 177.429 C 340.081 178.015,340.038 178.572,340.132 178.666 C 340.227 178.760,340.424 178.358,340.571 177.771 C 340.719 177.185,340.762 176.628,340.668 176.534 C 340.573 176.440,340.376 176.842,340.229 177.429 M183.200 178.194 C 183.200 178.383,184.055 179.337,185.100 180.314 C 192.946 187.653,203.899 198.979,205.490 201.400 C 207.818 204.943,208.412 205.571,207.003 203.000 C 204.910 199.182,204.258 198.477,189.095 183.626 C 185.853 180.450,183.200 178.006,183.200 178.194 M338.791 181.687 C 338.288 183.069,337.724 184.371,337.538 184.580 C 337.352 184.789,337.200 185.179,337.200 185.447 C 337.200 186.152,333.249 193.020,330.829 196.520 C 328.084 200.491,322.487 206.176,305.152 222.600 C 296.777 230.535,283.672 243.131,277.893 248.800 C 270.574 255.980,270.871 255.851,268.000 253.102 C 266.790 251.944,263.627 249.017,260.971 246.598 C 243.986 231.130,237.212 224.692,225.984 213.348 C 213.944 201.183,210.789 197.580,207.474 192.213 C 206.663 190.899,206.000 190.021,206.000 190.261 C 206.000 193.184,227.408 216.619,242.937 230.694 C 244.292 231.922,247.380 234.758,249.800 236.996 C 252.220 239.234,255.370 242.118,256.800 243.405 C 258.230 244.692,261.020 247.220,263.000 249.023 C 271.783 257.021,270.232 256.713,275.600 251.524 C 277.910 249.291,281.780 245.567,284.200 243.248 C 286.620 240.930,291.120 236.607,294.200 233.642 C 297.280 230.676,301.872 226.259,304.405 223.825 C 306.937 221.391,312.942 215.620,317.747 211.000 C 329.787 199.426,334.336 193.509,338.045 184.600 C 339.156 181.930,340.007 179.474,339.868 179.335 C 339.780 179.246,339.295 180.305,338.791 181.687 M202.242 182.000 C 202.551 183.255,205.478 189.600,205.748 189.600 C 205.915 189.600,204.580 186.509,202.465 182.000 L 201.996 181.000 202.242 182.000 M231.477 182.453 C 232.413 184.075,238.767 190.545,245.598 196.832 C 248.567 199.564,252.243 202.970,253.766 204.400 C 255.290 205.830,256.835 207.270,257.200 207.600 C 257.565 207.930,260.145 210.336,262.935 212.946 C 265.724 215.557,268.654 218.207,269.444 218.835 L 270.881 219.977 272.411 218.692 C 273.253 217.986,273.863 217.329,273.766 217.233 C 273.670 217.137,273.089 217.540,272.474 218.129 C 270.954 219.585,270.512 219.497,268.200 217.278 C 267.100 216.222,264.850 214.119,263.200 212.605 C 261.550 211.091,258.841 208.581,257.179 207.026 C 254.047 204.096,245.898 196.539,243.800 194.620 C 237.279 188.653,235.226 186.594,233.313 184.100 C 230.928 180.990,230.318 180.442,231.477 182.453 M208.200 205.800 C 208.375 206.240,209.027 208.040,209.648 209.800 C 210.269 211.560,210.783 212.644,210.789 212.208 C 210.802 211.255,208.858 205.964,208.287 205.400 C 208.015 205.131,207.986 205.261,208.200 205.800 M211.056 214.400 C 211.974 219.343,211.132 228.393,209.361 232.633 C 209.026 233.432,208.831 234.164,208.926 234.260 C 209.184 234.518,210.214 231.776,211.052 228.600 C 211.911 225.343,212.046 215.712,211.257 214.000 C 210.834 213.083,210.818 213.116,211.056 214.400 M183.023 216.348 C 184.142 220.408,182.429 225.183,179.021 227.500 C 177.970 228.215,177.270 228.800,177.466 228.800 C 178.745 228.800,181.947 225.728,182.886 223.600 C 183.786 221.561,183.981 217.359,183.231 216.154 C 182.808 215.475,182.788 215.494,183.023 216.348 M179.420 222.737 C 179.049 223.907,177.472 225.172,175.355 225.999 C 174.280 226.419,173.722 226.771,174.116 226.781 C 175.819 226.826,180.000 223.691,180.000 222.369 C 180.000 221.747,179.667 221.958,179.420 222.737 M175.000 229.415 C 173.412 229.965,173.410 229.967,174.800 229.742 C 175.570 229.618,176.371 229.355,176.580 229.158 C 177.047 228.718,176.987 228.728,175.000 229.415 M57.294 243.100 L 57.389 256.200 57.500 243.301 L 57.611 230.403 115.306 230.300 L 173.000 230.197 115.100 230.099 L 57.200 230.000 57.294 243.100 M207.421 236.922 C 203.514 243.943,192.465 253.147,187.872 253.206 C 187.612 253.209,187.130 253.404,186.800 253.638 C 185.587 254.500,188.574 253.559,191.507 252.154 C 198.461 248.826,204.965 242.742,208.070 236.661 C 209.255 234.340,208.743 234.546,207.421 236.922 M184.000 254.400 C 183.196 254.657,183.157 254.723,183.800 254.732 C 184.240 254.738,184.960 254.589,185.400 254.400 C 186.419 253.962,185.368 253.962,184.000 254.400 M178.200 255.425 L 174.600 255.944 177.952 255.740 C 179.795 255.628,181.685 255.382,182.152 255.193 C 183.243 254.752,182.598 254.790,178.200 255.425 M101.900 268.682 C 102.395 268.778,103.205 268.778,103.700 268.682 C 104.195 268.587,103.790 268.509,102.800 268.509 C 101.810 268.509,101.405 268.587,101.900 268.682 M294.305 268.683 C 294.802 268.779,295.522 268.775,295.905 268.675 C 296.287 268.575,295.880 268.496,295.000 268.501 C 294.120 268.505,293.807 268.587,294.305 268.683 M66.696 269.158 C 64.532 269.615,64.290 270.097,66.415 269.718 C 68.555 269.337,72.860 269.334,74.800 269.713 C 75.783 269.905,76.005 269.871,75.546 269.599 C 74.654 269.071,68.550 268.767,66.696 269.158 M106.600 269.347 C 115.607 271.711,117.200 274.416,117.200 287.342 C 117.200 298.763,116.632 300.424,111.622 303.654 C 110.644 304.284,110.028 304.800,110.253 304.800 C 112.052 304.800,116.049 300.616,117.082 297.651 C 118.102 294.726,117.778 278.819,116.649 276.311 C 114.965 272.574,110.616 269.508,106.299 269.015 C 104.602 268.822,104.602 268.822,106.600 269.347 M244.400 269.155 C 233.302 271.661,231.322 285.459,241.400 290.053 C 242.280 290.454,243.270 290.772,243.600 290.760 C 244.133 290.739,244.133 290.712,243.600 290.517 C 230.161 285.585,233.543 269.363,248.000 269.414 C 249.870 269.420,251.940 269.557,252.600 269.718 C 253.536 269.947,253.646 269.918,253.101 269.586 C 252.202 269.040,246.224 268.744,244.400 269.155 M290.080 269.195 C 289.354 269.367,288.647 269.620,288.509 269.758 C 288.244 270.023,290.319 269.673,292.000 269.169 C 293.389 268.752,291.860 268.773,290.080 269.195 M298.000 269.143 C 299.655 269.682,301.866 270.024,301.200 269.638 C 300.870 269.447,299.790 269.184,298.800 269.053 C 297.620 268.898,297.344 268.929,298.000 269.143 M94.600 270.261 C 91.173 272.014,87.938 275.768,88.032 277.884 C 88.051 278.313,88.233 278.119,88.487 277.400 C 89.690 273.994,92.966 270.991,96.748 269.826 C 98.014 269.436,98.283 269.253,97.600 269.246 C 97.050 269.241,95.700 269.698,94.600 270.261 M122.417 269.968 C 121.916 270.905,121.841 304.330,122.338 305.114 C 122.580 305.494,123.847 305.598,127.232 305.514 L 131.800 305.400 131.911 299.510 L 132.021 293.619 138.711 293.510 L 145.400 293.400 145.400 289.000 L 145.400 284.600 138.700 284.490 L 132.000 284.381 132.000 281.399 L 132.000 278.417 139.700 278.309 L 147.400 278.200 147.400 273.800 L 147.400 269.400 135.117 269.294 C 123.294 269.192,122.819 269.218,122.417 269.968 M152.187 269.622 C 152.040 269.859,152.028 270.161,152.160 270.293 C 152.292 270.425,152.400 270.323,152.400 270.067 C 152.400 269.720,155.951 269.600,166.192 269.600 L 179.985 269.600 180.211 270.501 C 180.335 270.997,180.384 272.842,180.319 274.601 L 180.200 277.800 175.400 278.026 L 170.600 278.252 175.600 278.226 L 180.600 278.200 180.600 273.800 L 180.600 269.400 166.527 269.295 C 156.781 269.222,152.371 269.323,152.187 269.622 M183.393 269.611 C 183.253 269.838,183.603 271.278,184.169 272.811 C 184.736 274.345,185.633 276.815,186.163 278.300 C 188.193 283.994,188.521 284.812,188.701 284.632 C 188.804 284.530,188.418 283.176,187.844 281.623 C 187.270 280.070,186.337 277.495,185.772 275.900 C 185.206 274.305,184.576 272.587,184.372 272.081 C 183.424 269.737,183.632 269.599,188.100 269.606 C 192.542 269.613,192.945 269.729,193.383 271.130 C 193.542 271.642,193.771 271.962,193.890 271.843 C 194.010 271.723,193.882 271.080,193.605 270.413 L 193.103 269.200 188.375 269.200 C 185.568 269.200,183.544 269.367,183.393 269.611 M207.190 270.226 C 206.620 271.725,206.742 271.966,207.429 270.700 C 208.024 269.604,208.040 269.600,212.389 269.600 C 217.698 269.600,217.469 269.121,215.171 275.400 C 210.345 288.587,207.982 295.316,208.128 295.461 C 208.296 295.629,209.445 292.608,212.791 283.200 C 216.121 273.837,216.835 271.853,217.234 270.870 C 217.846 269.358,217.387 269.200,212.366 269.200 C 207.597 269.200,207.579 269.204,207.190 270.226 M220.600 270.087 C 220.478 270.589,220.428 278.740,220.489 288.200 L 220.600 305.400 225.200 305.400 L 229.800 305.400 229.800 287.400 L 229.800 269.400 225.311 269.287 C 220.925 269.177,220.817 269.195,220.600 270.087 M266.421 269.960 C 265.916 270.905,265.837 304.324,266.339 305.114 C 266.579 305.494,267.807 305.599,271.032 305.514 L 275.400 305.400 275.400 287.400 L 275.400 269.400 271.121 269.287 C 267.211 269.183,266.806 269.241,266.421 269.960 M315.079 269.454 C 314.926 269.608,314.800 269.919,314.800 270.147 C 314.800 270.394,314.993 270.367,315.280 270.080 C 315.583 269.777,317.106 269.600,319.418 269.600 C 323.937 269.600,323.280 269.003,327.685 277.114 C 328.556 278.716,329.962 281.215,330.811 282.668 C 331.659 284.120,332.932 286.742,333.638 288.495 C 334.914 291.661,336.060 292.198,335.209 289.232 C 334.851 287.982,334.731 283.847,334.777 274.300 L 334.800 269.600 339.000 269.600 L 343.200 269.600 343.200 287.400 L 343.200 305.200 338.830 305.200 L 334.460 305.200 332.630 302.186 C 331.623 300.528,330.800 299.103,330.800 299.019 C 330.800 298.935,329.964 297.456,328.943 295.733 C 327.922 294.010,326.201 290.755,325.119 288.500 C 322.865 283.802,322.671 283.615,323.044 286.500 C 323.408 289.314,324.061 290.845,323.770 288.200 L 323.550 286.200 324.875 289.002 C 325.604 290.542,327.448 293.962,328.973 296.602 C 330.498 299.241,332.266 302.345,332.903 303.500 L 334.060 305.600 338.834 305.600 L 343.608 305.600 343.504 287.500 L 343.400 269.400 339.258 269.286 C 333.475 269.126,333.878 268.340,334.068 279.386 L 334.227 288.600 331.986 284.200 C 330.754 281.780,329.259 278.948,328.664 277.907 C 328.069 276.866,326.729 274.526,325.687 272.707 L 323.793 269.400 319.576 269.287 C 317.256 269.225,315.233 269.300,315.079 269.454 M147.114 273.900 L 147.228 278.000 139.441 278.000 C 130.681 278.000,131.208 277.791,131.382 281.200 C 131.589 285.257,130.698 284.800,138.400 284.800 L 145.200 284.800 145.200 288.991 L 145.200 293.181 138.300 293.291 L 131.400 293.400 131.316 298.800 C 131.269 301.770,131.224 304.425,131.216 304.700 C 131.204 305.067,130.085 305.200,127.000 305.200 L 122.800 305.200 122.800 287.394 L 122.800 269.588 134.900 269.694 L 147.000 269.800 147.114 273.900 M229.504 287.500 L 229.608 305.200 225.204 305.200 L 220.800 305.200 220.800 287.667 C 220.800 278.023,220.926 270.007,221.080 269.854 C 221.234 269.700,223.169 269.625,225.380 269.687 L 229.400 269.800 229.504 287.500 M275.200 287.400 L 275.200 305.200 271.000 305.200 L 266.800 305.200 266.800 287.400 L 266.800 269.600 271.000 269.600 L 275.200 269.600 275.200 287.400 M62.028 271.179 C 54.887 275.917,55.725 285.983,63.595 289.998 C 64.460 290.439,65.490 290.786,65.884 290.768 C 66.318 290.749,66.127 290.566,65.400 290.304 C 56.221 286.993,54.756 276.288,62.778 271.141 C 63.756 270.513,64.386 270.001,64.178 270.002 C 63.970 270.003,63.003 270.532,62.028 271.179 M78.831 271.700 C 82.225 274.024,82.523 274.591,81.000 275.832 C 77.684 278.536,76.787 278.985,75.868 278.401 C 71.013 275.313,66.172 275.897,66.479 279.533 C 66.612 281.122,68.558 282.831,70.159 282.766 C 70.874 282.736,70.845 282.684,69.965 282.418 C 67.917 281.797,66.800 280.774,66.800 279.518 C 66.800 276.278,71.276 275.845,75.521 278.673 L 76.842 279.553 79.599 277.476 C 81.115 276.334,82.366 275.106,82.378 274.747 C 82.403 273.997,79.825 271.544,78.044 270.623 C 75.974 269.552,76.254 269.935,78.831 271.700 M285.947 270.803 C 283.771 271.953,281.416 274.863,280.624 277.379 C 279.391 281.301,279.847 296.803,281.266 299.200 C 283.284 302.608,287.061 305.262,290.600 305.757 L 292.200 305.982 290.800 305.561 C 281.903 302.885,280.600 300.568,280.600 287.428 C 280.600 275.823,281.467 273.486,286.700 270.984 C 287.931 270.396,288.362 269.979,287.700 270.018 C 287.535 270.027,286.746 270.381,285.947 270.803 M256.024 271.073 C 256.038 271.253,256.802 271.947,257.722 272.615 C 260.049 274.305,259.995 274.765,257.214 276.924 C 254.645 278.920,253.979 279.138,253.226 278.231 C 252.678 277.571,250.246 276.627,250.610 277.216 C 250.740 277.427,251.062 277.604,251.324 277.609 C 251.586 277.614,252.250 277.970,252.800 278.400 C 253.350 278.830,254.086 279.186,254.434 279.191 C 255.276 279.203,260.236 275.193,260.070 274.635 C 259.775 273.647,255.966 270.293,256.024 271.073 M305.475 272.220 C 307.415 273.847,308.615 275.648,309.379 278.078 C 309.677 279.025,309.937 279.440,309.957 279.000 C 310.047 276.964,305.626 270.769,304.109 270.808 C 303.939 270.812,304.554 271.448,305.475 272.220 M206.229 273.029 C 206.081 273.615,206.051 274.184,206.161 274.294 C 206.271 274.404,206.481 274.015,206.629 273.429 C 206.776 272.842,206.806 272.273,206.696 272.163 C 206.586 272.053,206.376 272.442,206.229 273.029 M194.034 272.800 C 194.046 273.130,194.211 273.760,194.400 274.200 L 194.744 275.000 194.766 274.200 C 194.778 273.760,194.613 273.130,194.400 272.800 C 194.055 272.267,194.015 272.267,194.034 272.800 M205.240 276.240 C 204.697 278.208,204.977 278.488,205.600 276.600 C 205.864 275.801,205.985 275.052,205.869 274.936 C 205.753 274.820,205.470 275.407,205.240 276.240 M194.865 275.634 C 194.975 275.945,195.660 278.050,196.387 280.312 C 197.114 282.574,197.777 284.357,197.859 284.274 C 197.941 284.192,197.468 282.432,196.807 280.362 C 196.145 278.293,195.604 276.386,195.602 276.124 C 195.601 275.862,195.389 275.517,195.132 275.358 C 194.836 275.175,194.738 275.277,194.865 275.634 M245.424 277.013 C 244.996 277.336,244.825 277.600,245.044 277.600 C 245.262 277.600,245.611 277.431,245.820 277.224 C 246.029 277.017,247.100 276.780,248.200 276.696 L 250.200 276.544 248.200 276.485 C 246.977 276.449,245.898 276.654,245.424 277.013 M293.600 277.212 C 289.512 277.913,289.197 278.656,289.213 287.589 C 289.226 295.601,289.303 295.921,291.478 297.100 C 294.787 298.895,301.674 296.777,300.658 294.278 C 300.541 293.991,300.451 294.052,300.432 294.430 C 300.286 297.329,293.409 298.437,290.784 295.985 L 289.600 294.879 289.609 287.540 C 289.617 281.190,289.711 280.085,290.309 279.347 C 292.702 276.393,300.400 277.274,300.400 280.502 C 300.400 280.959,300.512 281.222,300.648 281.085 C 302.442 279.291,297.456 276.551,293.600 277.212 M98.800 277.918 C 97.515 278.786,96.828 279.645,96.814 280.400 C 96.808 280.730,97.141 280.446,97.554 279.768 C 99.111 277.215,105.118 276.694,107.054 278.945 C 108.551 280.686,108.525 294.568,107.021 295.980 C 104.998 297.880,100.019 297.800,98.052 295.835 C 97.021 294.805,96.996 294.650,96.777 288.092 L 96.554 281.400 96.477 287.513 C 96.367 296.271,97.245 297.732,102.631 297.744 C 107.861 297.757,108.800 296.182,108.800 287.400 C 108.800 280.529,108.483 279.163,106.617 278.011 C 104.907 276.954,100.307 276.899,98.800 277.918 M152.006 277.700 C 152.001 278.326,152.483 278.400,156.600 278.400 C 159.130 278.400,161.239 278.445,161.286 278.500 C 161.334 278.555,161.469 284.630,161.586 292.000 L 161.800 305.400 166.300 305.513 L 170.800 305.626 170.706 292.113 L 170.611 278.600 170.500 291.900 L 170.389 305.200 166.200 305.200 L 162.011 305.200 161.905 291.700 L 161.800 278.200 157.215 278.086 C 154.164 278.010,152.527 277.810,152.321 277.486 C 152.108 277.151,152.010 277.217,152.006 277.700 M244.156 278.571 C 243.497 280.289,245.700 282.852,247.759 282.764 C 248.379 282.737,248.282 282.635,247.387 282.375 C 245.481 281.821,244.295 280.498,244.493 279.149 C 244.674 277.917,244.513 277.641,244.156 278.571 M87.770 287.600 C 87.770 292.330,87.828 294.265,87.898 291.900 C 87.969 289.535,87.969 285.665,87.898 283.300 C 87.828 280.935,87.770 282.870,87.770 287.600 M202.821 283.621 C 202.343 285.196,202.034 286.567,202.134 286.668 C 202.235 286.769,202.715 285.568,203.200 284.000 C 203.685 282.432,203.994 281.061,203.887 280.953 C 203.779 280.846,203.299 282.046,202.821 283.621 M72.400 283.270 C 80.728 285.697,83.479 288.656,83.132 294.809 C 83.046 296.323,83.114 297.346,83.282 297.081 C 83.971 295.997,83.608 291.640,82.647 289.467 C 81.243 286.293,77.147 283.641,72.800 283.090 C 71.070 282.870,71.055 282.877,72.400 283.270 M249.200 283.137 C 249.530 283.332,250.520 283.598,251.400 283.728 C 252.330 283.866,252.749 283.827,252.400 283.634 C 251.562 283.171,248.434 282.686,249.200 283.137 M254.204 284.530 C 258.695 286.282,261.633 290.985,260.967 295.360 C 260.790 296.527,260.804 296.543,261.203 295.629 C 261.680 294.536,261.150 291.092,260.174 288.943 C 259.203 286.804,255.298 283.924,253.513 284.030 C 253.231 284.047,253.542 284.272,254.204 284.530 M198.238 286.300 C 198.389 287.125,198.667 288.217,198.856 288.726 C 199.045 289.235,199.213 290.225,199.228 290.926 C 199.244 291.627,199.423 292.560,199.627 293.000 C 200.134 294.094,199.737 291.006,198.921 287.500 C 198.250 284.622,197.780 283.796,198.238 286.300 M189.029 286.000 C 189.176 286.550,189.464 287.270,189.667 287.600 C 189.925 288.017,189.957 287.895,189.771 287.200 C 189.624 286.650,189.336 285.930,189.133 285.600 C 188.875 285.183,188.843 285.305,189.029 286.000 M201.405 289.059 C 201.153 290.634,200.672 292.694,200.182 294.300 C 200.030 294.795,200.077 295.200,200.285 295.200 C 200.695 295.200,202.196 288.063,201.857 287.724 C 201.744 287.611,201.541 288.212,201.405 289.059 M67.200 291.188 C 67.530 291.408,68.340 291.594,69.000 291.603 C 70.528 291.622,73.539 292.976,73.849 293.784 C 75.279 297.509,67.906 298.399,64.185 294.951 C 62.797 293.665,62.528 293.758,59.633 296.528 C 56.506 299.521,56.891 301.294,61.165 303.581 C 62.569 304.333,62.097 303.719,60.251 302.394 C 57.048 300.093,57.022 299.525,59.997 296.772 C 62.840 294.141,62.875 294.125,63.651 295.065 C 65.345 297.116,71.029 298.254,73.030 296.943 C 75.432 295.370,74.951 293.334,71.866 292.010 C 69.969 291.197,66.221 290.536,67.200 291.188 M191.003 291.600 C 191.477 293.215,192.049 293.977,191.754 292.600 C 191.612 291.940,191.320 291.220,191.103 291.000 C 190.845 290.737,190.811 290.943,191.003 291.600 M244.800 291.179 C 245.130 291.404,245.901 291.591,246.513 291.594 C 247.831 291.601,250.280 292.568,251.285 293.477 C 251.678 293.833,251.994 293.961,251.987 293.762 C 251.954 292.809,249.058 291.525,245.800 291.019 C 244.647 290.840,244.368 290.885,244.800 291.179 M192.154 294.578 C 192.308 295.006,192.720 296.228,193.069 297.294 C 193.417 298.359,193.778 299.155,193.871 299.062 C 194.074 298.860,192.539 294.392,192.147 294.044 C 191.996 293.910,191.999 294.150,192.154 294.578 M237.458 296.435 C 235.996 297.775,234.800 299.153,234.800 299.497 C 234.800 300.147,237.601 302.950,239.000 303.701 C 239.440 303.937,238.765 303.183,237.500 302.025 C 234.637 299.405,234.638 299.391,237.816 296.601 C 240.179 294.527,240.498 294.361,241.116 294.891 C 242.364 295.962,243.020 296.083,241.878 295.032 C 240.398 293.672,240.514 293.635,237.458 296.435 M251.600 295.523 C 251.600 296.966,247.651 297.606,244.850 296.618 C 242.789 295.890,242.686 296.171,244.700 297.027 C 247.413 298.180,253.327 296.794,251.878 295.344 C 251.725 295.192,251.600 295.272,251.600 295.523 M309.417 296.649 C 308.931 299.239,307.025 301.713,304.022 303.652 C 303.044 304.283,302.423 304.800,302.643 304.800 C 303.224 304.800,306.487 302.652,307.259 301.761 C 308.771 300.017,310.702 295.200,309.889 295.200 C 309.779 295.200,309.567 295.852,309.417 296.649 M207.600 296.103 C 207.600 296.159,207.423 296.822,207.207 297.576 C 206.987 298.342,206.975 298.782,207.179 298.573 C 207.631 298.110,208.176 296.000,207.843 296.000 C 207.710 296.000,207.600 296.046,207.600 296.103 M88.032 296.916 C 87.890 300.132,93.593 305.091,98.200 305.759 L 99.800 305.991 98.000 305.454 C 93.195 304.021,89.881 301.331,88.655 297.870 C 88.329 296.952,88.049 296.522,88.032 296.916 M260.446 297.067 C 260.421 297.324,260.284 297.864,260.141 298.267 C 259.940 298.836,259.994 298.897,260.379 298.542 C 260.652 298.291,260.789 297.751,260.684 297.342 C 260.579 296.934,260.472 296.810,260.446 297.067 M81.693 299.607 C 80.736 301.271,78.952 302.801,76.533 304.034 C 75.707 304.455,75.258 304.800,75.535 304.800 C 77.069 304.800,81.197 301.540,82.255 299.493 C 83.164 297.737,82.717 297.827,81.693 299.607 M206.200 300.000 C 206.050 300.473,206.017 300.950,206.127 301.060 C 206.237 301.170,206.450 300.873,206.600 300.400 C 206.750 299.927,206.783 299.450,206.673 299.340 C 206.563 299.230,206.350 299.527,206.200 300.000 M258.000 301.242 C 254.572 305.040,245.774 306.883,241.663 304.663 C 240.927 304.266,240.233 304.034,240.120 304.147 C 239.389 304.878,243.291 305.773,247.200 305.771 C 252.709 305.769,260.000 302.218,260.000 299.536 C 260.000 299.038,259.952 299.079,258.000 301.242 M205.600 301.703 C 205.600 301.759,205.423 302.422,205.207 303.176 C 204.987 303.942,204.975 304.382,205.179 304.173 C 205.631 303.710,206.176 301.600,205.843 301.600 C 205.710 301.600,205.600 301.646,205.600 301.703 M195.004 302.800 C 195.908 305.782,195.571 305.600,200.166 305.600 C 202.469 305.600,204.437 305.465,204.539 305.300 C 204.641 305.135,202.807 305.000,200.463 305.000 L 196.201 305.000 195.787 303.719 C 195.297 302.205,194.562 301.342,195.004 302.800 M62.564 304.341 C 63.455 305.784,73.199 306.561,74.469 305.291 C 74.726 305.034,74.124 305.034,72.731 305.292 C 70.055 305.787,65.640 305.448,64.050 304.626 C 62.690 303.922,62.253 303.839,62.564 304.341 M107.680 305.195 C 106.954 305.367,106.234 305.639,106.080 305.800 C 105.728 306.169,108.390 305.628,109.200 305.166 C 109.912 304.761,109.478 304.769,107.680 305.195 M300.224 305.250 C 299.357 305.453,298.547 305.729,298.424 305.863 C 298.062 306.256,301.363 305.574,301.780 305.169 C 301.989 304.966,302.079 304.818,301.980 304.840 C 301.881 304.862,301.091 305.047,300.224 305.250 M317.116 305.497 C 318.499 305.575,320.659 305.574,321.916 305.495 C 323.172 305.416,322.040 305.352,319.400 305.353 C 316.760 305.353,315.732 305.418,317.116 305.497 M101.507 306.290 C 102.226 306.379,103.306 306.377,103.907 306.286 C 104.508 306.195,103.920 306.122,102.600 306.124 C 101.280 306.126,100.788 306.201,101.507 306.290 M294.307 306.290 C 295.026 306.379,296.106 306.377,296.707 306.286 C 297.308 306.195,296.720 306.122,295.400 306.124 C 294.080 306.126,293.588 306.201,294.307 306.290 " stroke="none" fill="#97c2e3" fill-rule="evenodd"></path><path id="path3" d="M109.200 76.696 C 158.315 76.969,194.706 76.971,194.538 76.700 C 194.436 76.535,171.008 76.443,142.476 76.496 C 113.944 76.549,98.970 76.639,109.200 76.696 M197.461 76.700 C 197.359 76.865,200.813 76.954,205.138 76.898 C 219.955 76.705,221.391 76.570,209.524 76.485 C 202.992 76.438,197.564 76.535,197.461 76.700 M222.384 76.693 C 222.926 76.795,223.611 77.175,223.906 77.539 C 224.374 78.114,224.387 78.082,224.008 77.300 C 223.702 76.668,223.249 76.416,222.486 76.454 C 221.426 76.508,221.424 76.513,222.384 76.693 M236.723 76.699 C 239.431 76.768,243.751 76.768,246.323 76.699 C 248.895 76.629,246.680 76.572,241.400 76.573 C 236.120 76.573,234.015 76.630,236.723 76.699 M294.100 76.699 C 296.905 76.768,301.495 76.768,304.300 76.699 C 307.105 76.630,304.810 76.574,299.200 76.574 C 293.590 76.574,291.295 76.630,294.100 76.699 M311.700 76.687 C 312.305 76.778,313.295 76.778,313.900 76.687 C 314.505 76.595,314.010 76.520,312.800 76.520 C 311.590 76.520,311.095 76.595,311.700 76.687 M317.680 76.880 C 317.416 77.144,317.227 78.089,317.260 78.980 L 317.320 80.600 317.560 78.816 C 317.757 77.351,317.979 76.983,318.800 76.756 C 319.637 76.525,319.666 76.473,318.980 76.440 C 318.529 76.418,317.944 76.616,317.680 76.880 M325.300 76.699 C 328.325 76.767,333.275 76.767,336.300 76.699 C 339.325 76.631,336.850 76.575,330.800 76.575 C 324.750 76.575,322.275 76.631,325.300 76.699 M342.600 76.672 C 343.040 76.793,343.549 77.097,343.730 77.346 C 343.949 77.646,344.006 77.596,343.899 77.200 C 343.810 76.870,343.301 76.567,342.769 76.526 C 342.005 76.468,341.969 76.499,342.600 76.672 M317.392 119.600 C 317.392 139.950,317.440 148.275,317.500 138.100 C 317.559 127.925,317.559 111.275,317.500 101.100 C 317.440 90.925,317.392 99.250,317.392 119.600 M59.579 96.655 C 59.358 97.236,59.252 97.785,59.343 97.876 C 59.433 97.967,59.699 97.492,59.933 96.820 C 60.453 95.328,60.139 95.182,59.579 96.655 M144.800 103.200 L 95.400 103.405 144.600 103.496 C 175.846 103.554,194.019 103.446,194.400 103.200 C 194.730 102.987,194.820 102.853,194.600 102.904 C 194.380 102.954,171.970 103.087,144.800 103.200 M90.122 108.229 L 89.000 109.258 90.300 108.354 C 91.015 107.857,91.600 107.393,91.600 107.325 C 91.600 107.009,91.158 107.280,90.122 108.229 M87.693 112.800 C 87.693 113.570,87.775 113.885,87.876 113.500 C 87.976 113.115,87.976 112.485,87.876 112.100 C 87.775 111.715,87.693 112.030,87.693 112.800 M87.600 115.776 C 87.600 116.533,87.738 117.238,87.907 117.343 C 88.076 117.447,88.148 116.828,88.065 115.966 C 87.881 114.032,87.600 113.918,87.600 115.776 M57.606 116.233 C 57.609 116.875,57.784 117.670,57.995 118.000 C 58.255 118.409,58.299 118.090,58.132 117.000 C 57.829 115.023,57.598 114.686,57.606 116.233 M90.383 124.100 C 91.364 125.145,92.219 126.000,92.283 126.000 C 92.584 126.000,92.266 125.641,90.500 123.983 L 88.600 122.200 90.383 124.100 M95.200 129.000 C 96.395 130.210,97.463 131.200,97.573 131.200 C 97.683 131.200,96.795 130.210,95.600 129.000 C 94.405 127.790,93.337 126.800,93.227 126.800 C 93.117 126.800,94.005 127.790,95.200 129.000 M100.200 134.000 C 101.506 135.320,102.665 136.400,102.775 136.400 C 102.885 136.400,101.906 135.320,100.600 134.000 C 99.294 132.680,98.135 131.600,98.025 131.600 C 97.915 131.600,98.894 132.680,100.200 134.000 M64.760 133.800 C 65.434 135.105,65.988 135.828,65.985 135.400 C 65.983 135.180,65.614 134.550,65.164 134.000 C 64.621 133.336,64.485 133.269,64.760 133.800 M105.800 139.600 C 107.106 140.920,108.265 142.000,108.375 142.000 C 108.485 142.000,107.506 140.920,106.200 139.600 C 104.894 138.280,103.735 137.200,103.625 137.200 C 103.515 137.200,104.494 138.280,105.800 139.600 M112.400 143.400 C 113.595 144.610,114.663 145.600,114.773 145.600 C 114.883 145.600,113.995 144.610,112.800 143.400 C 111.605 142.190,110.537 141.200,110.427 141.200 C 110.317 141.200,111.205 142.190,112.400 143.400 M72.429 143.100 C 72.445 143.265,73.120 143.930,73.929 144.579 L 75.400 145.757 74.022 144.279 C 72.597 142.751,72.380 142.590,72.429 143.100 M111.200 145.000 C 112.395 146.210,113.463 147.200,113.573 147.200 C 113.683 147.200,112.795 146.210,111.600 145.000 C 110.405 143.790,109.337 142.800,109.227 142.800 C 109.117 142.800,110.005 143.790,111.200 145.000 M154.800 149.800 C 157.323 152.330,159.477 154.400,159.587 154.400 C 159.697 154.400,157.723 152.330,155.200 149.800 C 152.677 147.270,150.523 145.200,150.413 145.200 C 150.303 145.200,152.277 147.270,154.800 149.800 M114.000 147.725 C 114.000 147.794,114.585 148.379,115.300 149.025 L 116.600 150.200 115.425 148.900 C 114.330 147.688,114.000 147.416,114.000 147.725 M78.800 148.925 C 78.800 148.994,79.385 149.579,80.100 150.225 L 81.400 151.400 80.225 150.100 C 79.130 148.888,78.800 148.616,78.800 148.925 M121.200 152.125 C 121.200 152.194,121.785 152.779,122.500 153.425 L 123.800 154.600 122.625 153.300 C 121.530 152.088,121.200 151.816,121.200 152.125 M121.800 155.600 C 123.106 156.920,124.265 158.000,124.375 158.000 C 124.485 158.000,123.506 156.920,122.200 155.600 C 120.894 154.280,119.735 153.200,119.625 153.200 C 119.515 153.200,120.494 154.280,121.800 155.600 M88.783 158.900 C 90.441 160.666,90.800 160.984,90.800 160.683 C 90.800 160.619,89.945 159.764,88.900 158.783 L 87.000 157.000 88.783 158.900 M224.114 160.200 C 224.117 161.300,224.195 161.703,224.287 161.095 C 224.379 160.486,224.377 159.586,224.282 159.095 C 224.187 158.603,224.111 159.100,224.114 160.200 M127.200 161.000 C 128.395 162.210,129.463 163.200,129.573 163.200 C 129.683 163.200,128.795 162.210,127.600 161.000 C 126.405 159.790,125.337 158.800,125.227 158.800 C 125.117 158.800,126.005 159.790,127.200 161.000 M197.714 164.600 C 197.717 165.700,197.795 166.103,197.887 165.495 C 197.979 164.886,197.977 163.986,197.882 163.495 C 197.787 163.003,197.711 163.500,197.714 164.600 M132.200 166.000 C 133.506 167.320,134.665 168.400,134.775 168.400 C 134.885 168.400,133.906 167.320,132.600 166.000 C 131.294 164.680,130.135 163.600,130.025 163.600 C 129.915 163.600,130.894 164.680,132.200 166.000 M227.444 167.000 C 227.773 168.471,228.002 168.790,227.994 167.767 C 227.991 167.345,227.805 166.730,227.582 166.400 C 227.285 165.962,227.248 166.124,227.444 167.000 M137.000 170.800 C 137.859 171.680,138.652 172.400,138.762 172.400 C 138.872 172.400,138.259 171.680,137.400 170.800 C 136.541 169.920,135.748 169.200,135.638 169.200 C 135.528 169.200,136.141 169.920,137.000 170.800 M278.600 171.849 L 276.600 173.681 278.700 172.003 C 280.518 170.551,281.095 169.976,280.700 170.008 C 280.645 170.013,279.700 170.841,278.600 171.849 M264.088 173.013 C 264.686 173.643,265.247 174.077,265.335 173.979 C 265.423 173.880,264.933 173.365,264.247 172.834 L 263.000 171.869 264.088 173.013 M183.600 178.200 C 184.346 178.970,185.047 179.600,185.157 179.600 C 185.267 179.600,184.746 178.970,184.000 178.200 C 183.254 177.430,182.553 176.800,182.443 176.800 C 182.333 176.800,182.854 177.430,183.600 178.200 M231.663 181.600 C 232.151 182.260,232.617 182.800,232.698 182.800 C 232.779 182.800,232.526 182.260,232.136 181.600 C 231.746 180.940,231.281 180.400,231.102 180.400 C 230.923 180.400,231.175 180.940,231.663 181.600 M233.996 184.794 C 234.690 185.671,235.467 186.518,235.723 186.676 C 235.978 186.834,235.493 186.116,234.645 185.081 C 233.797 184.047,233.020 183.200,232.918 183.200 C 232.816 183.200,233.301 183.918,233.996 184.794 M303.375 185.700 L 302.200 187.000 303.500 185.825 C 304.215 185.179,304.800 184.594,304.800 184.525 C 304.800 184.216,304.470 184.488,303.375 185.700 M304.581 187.300 L 303.000 189.000 304.700 187.419 C 306.281 185.948,306.584 185.600,306.281 185.600 C 306.216 185.600,305.451 186.365,304.581 187.300 M238.600 189.600 C 239.459 190.480,240.252 191.200,240.362 191.200 C 240.472 191.200,239.859 190.480,239.000 189.600 C 238.141 188.720,237.348 188.000,237.238 188.000 C 237.128 188.000,237.741 188.720,238.600 189.600 M198.783 192.900 C 200.441 194.666,200.800 194.984,200.800 194.683 C 200.800 194.619,199.945 193.764,198.900 192.783 L 197.000 191.000 198.783 192.900 M158.000 191.725 C 158.000 191.794,158.585 192.379,159.300 193.025 L 160.600 194.200 159.425 192.900 C 158.330 191.688,158.000 191.416,158.000 191.725 M207.560 193.800 C 208.234 195.105,208.788 195.828,208.785 195.400 C 208.783 195.180,208.414 194.550,207.964 194.000 C 207.421 193.336,207.285 193.269,207.560 193.800 M296.073 195.250 C 295.123 196.146,294.405 196.938,294.476 197.010 C 294.548 197.081,295.450 196.344,296.480 195.370 C 297.510 194.397,298.229 193.605,298.077 193.610 C 297.925 193.616,297.023 194.353,296.073 195.250 M246.438 194.100 C 246.532 194.155,247.327 194.830,248.204 195.600 L 249.800 197.000 248.422 195.500 C 247.663 194.675,246.868 194.000,246.655 194.000 C 246.441 194.000,246.344 194.045,246.438 194.100 M292.657 195.700 C 291.725 196.635,291.420 197.024,291.981 196.565 C 293.978 194.930,294.946 194.000,294.652 194.000 C 294.488 194.000,293.590 194.765,292.657 195.700 M131.625 201.830 C 132.059 202.353,132.050 202.523,131.574 202.824 C 131.148 203.094,131.283 203.189,132.097 203.194 L 133.195 203.200 132.325 202.200 C 131.386 201.120,130.762 200.791,131.625 201.830 M255.000 204.800 C 256.083 205.900,257.060 206.800,257.170 206.800 C 257.280 206.800,256.483 205.900,255.400 204.800 C 254.317 203.700,253.340 202.800,253.230 202.800 C 253.120 202.800,253.917 203.700,255.000 204.800 M257.600 204.200 C 258.346 204.970,259.047 205.600,259.157 205.600 C 259.267 205.600,258.746 204.970,258.000 204.200 C 257.254 203.430,256.553 202.800,256.443 202.800 C 256.333 202.800,256.854 203.430,257.600 204.200 M219.400 208.000 C 221.812 210.420,223.876 212.400,223.986 212.400 C 224.096 212.400,222.212 210.420,219.800 208.000 C 217.388 205.580,215.324 203.600,215.214 203.600 C 215.104 203.600,216.988 205.580,219.400 208.000 M56.493 206.400 C 56.493 207.170,56.575 207.485,56.676 207.100 C 56.776 206.715,56.776 206.085,56.676 205.700 C 56.575 205.315,56.493 205.630,56.493 206.400 M282.386 208.300 L 280.200 210.600 282.500 208.414 C 284.637 206.382,284.983 206.000,284.686 206.000 C 284.624 206.000,283.589 207.035,282.386 208.300 M176.800 207.725 C 176.800 207.794,177.385 208.379,178.100 209.025 L 179.400 210.200 178.225 208.900 C 177.130 207.688,176.800 207.416,176.800 207.725 M318.788 210.258 C 317.365 211.720,316.650 212.580,317.200 212.169 C 318.232 211.399,321.844 207.600,321.545 207.600 C 321.453 207.600,320.212 208.796,318.788 210.258 M261.400 210.800 C 262.259 211.680,263.052 212.400,263.162 212.400 C 263.272 212.400,262.659 211.680,261.800 210.800 C 260.941 209.920,260.148 209.200,260.038 209.200 C 259.928 209.200,260.541 209.920,261.400 210.800 M274.985 212.100 L 273.000 214.200 275.100 212.215 C 277.051 210.371,277.383 210.000,277.085 210.000 C 277.022 210.000,276.077 210.945,274.985 212.100 M265.400 214.400 C 266.483 215.500,267.460 216.400,267.570 216.400 C 267.680 216.400,266.883 215.500,265.800 214.400 C 264.717 213.300,263.740 212.400,263.630 212.400 C 263.520 212.400,264.317 213.300,265.400 214.400 M224.400 212.823 C 224.400 212.939,226.740 215.374,229.600 218.234 C 232.460 221.094,234.800 223.334,234.800 223.211 C 234.800 223.089,232.460 220.654,229.600 217.800 C 226.740 214.946,224.400 212.707,224.400 212.823 M56.476 220.476 C 56.434 224.148,56.535 227.237,56.700 227.339 C 56.865 227.442,56.953 225.428,56.896 222.863 C 56.709 214.543,56.553 213.655,56.476 220.476 M273.400 216.608 C 271.941 217.931,270.765 218.700,270.400 218.568 C 269.930 218.399,269.905 218.458,270.283 218.840 C 270.702 219.262,276.000 215.302,276.000 214.566 C 276.000 214.270,275.834 214.401,273.400 216.608 M212.114 218.600 C 212.117 219.700,212.195 220.103,212.287 219.495 C 212.379 218.886,212.377 217.986,212.282 217.495 C 212.187 217.003,212.111 217.500,212.114 218.600 M212.120 222.800 C 212.120 224.010,212.195 224.505,212.287 223.900 C 212.378 223.295,212.378 222.305,212.287 221.700 C 212.195 221.095,212.120 221.590,212.120 222.800 M238.600 227.200 C 240.350 228.960,241.871 230.400,241.981 230.400 C 242.091 230.400,240.750 228.960,239.000 227.200 C 237.250 225.440,235.729 224.000,235.619 224.000 C 235.509 224.000,236.850 225.440,238.600 227.200 M299.375 228.900 L 298.200 230.200 299.500 229.025 C 300.215 228.379,300.800 227.794,300.800 227.725 C 300.800 227.416,300.470 227.688,299.375 228.900 M56.880 230.080 C 56.007 230.953,56.214 255.356,57.100 256.051 C 57.722 256.539,57.744 256.528,57.294 255.952 C 56.906 255.454,56.813 252.394,56.894 242.752 L 57.000 230.200 114.800 229.998 L 172.600 229.796 114.980 229.698 C 70.588 229.622,57.250 229.710,56.880 230.080 M250.200 238.000 C 251.059 238.880,251.852 239.600,251.962 239.600 C 252.072 239.600,251.459 238.880,250.600 238.000 C 249.741 237.120,248.948 236.400,248.838 236.400 C 248.728 236.400,249.341 237.120,250.200 238.000 M253.059 240.523 C 253.441 241.030,254.215 241.778,254.777 242.184 C 255.380 242.620,255.151 242.241,254.219 241.262 C 252.461 239.414,252.002 239.122,253.059 240.523 M262.800 249.400 C 263.546 250.170,264.247 250.800,264.357 250.800 C 264.467 250.800,263.946 250.170,263.200 249.400 C 262.454 248.630,261.753 248.000,261.643 248.000 C 261.533 248.000,262.054 248.630,262.800 249.400 M276.581 250.900 L 275.000 252.600 276.700 251.019 C 277.635 250.149,278.400 249.384,278.400 249.319 C 278.400 249.016,278.052 249.319,276.581 250.900 M176.105 256.287 C 176.714 256.379,177.614 256.377,178.105 256.282 C 178.597 256.187,178.100 256.111,177.000 256.114 C 175.900 256.117,175.497 256.195,176.105 256.287 M67.463 268.700 C 67.362 268.865,68.774 269.000,70.602 269.000 C 72.430 269.000,73.718 268.868,73.463 268.706 C 72.853 268.319,67.700 268.314,67.463 268.700 M247.800 268.598 C 248.818 268.943,252.062 269.085,251.554 268.763 C 251.249 268.570,250.190 268.424,249.200 268.438 C 248.210 268.452,247.580 268.524,247.800 268.598 M229.994 271.318 L 230.189 273.800 230.317 271.643 C 230.388 270.456,230.300 269.340,230.123 269.161 C 229.945 268.983,229.887 269.954,229.994 271.318 M333.867 269.467 C 333.720 269.613,333.600 273.314,333.600 277.690 C 333.600 283.298,333.472 285.568,333.167 285.380 C 332.852 285.185,333.633 287.160,334.151 287.867 C 334.178 287.904,334.200 283.719,334.200 278.568 C 334.200 273.416,334.185 269.201,334.167 269.200 C 334.148 269.200,334.013 269.320,333.867 269.467 M121.694 287.267 C 121.594 305.783,121.610 306.016,122.943 305.972 C 123.772 305.945,123.774 305.934,123.000 305.632 C 122.221 305.328,122.195 304.851,121.994 287.560 L 121.787 269.800 121.694 287.267 M265.784 287.600 C 265.784 297.390,265.836 301.395,265.900 296.500 C 265.963 291.605,265.963 283.595,265.900 278.700 C 265.836 273.805,265.784 277.810,265.784 287.600 M151.774 275.000 C 151.800 278.556,151.812 278.600,152.800 278.639 C 153.639 278.671,153.657 278.651,152.915 278.513 C 152.096 278.362,152.020 278.091,151.889 274.875 L 151.747 271.400 151.774 275.000 M306.997 272.801 C 308.893 275.018,308.920 275.042,308.486 274.200 C 308.259 273.760,307.562 272.951,306.937 272.401 L 305.800 271.403 306.997 272.801 M230.176 288.200 C 230.176 294.360,230.232 296.824,230.299 293.676 C 230.367 290.527,230.367 285.487,230.299 282.476 C 230.231 279.464,230.176 282.040,230.176 288.200 M73.600 277.746 C 73.600 277.856,74.140 278.330,74.800 278.800 C 75.460 279.270,76.000 279.564,76.000 279.454 C 76.000 279.344,75.460 278.870,74.800 278.400 C 74.140 277.930,73.600 277.636,73.600 277.746 M173.500 278.682 C 173.995 278.778,174.805 278.778,175.300 278.682 C 175.795 278.587,175.390 278.509,174.400 278.509 C 173.410 278.509,173.005 278.587,173.500 278.682 M279.772 287.400 C 279.772 292.460,279.829 294.475,279.899 291.877 C 279.969 289.280,279.968 285.140,279.898 282.677 C 279.828 280.215,279.771 282.340,279.772 287.400 M171.200 291.626 C 171.200 299.806,171.047 304.769,170.778 305.326 C 170.370 306.170,170.377 306.174,170.978 305.424 C 171.581 304.671,171.991 278.800,171.400 278.800 C 171.290 278.800,171.200 284.572,171.200 291.626 M132.046 281.276 C 132.021 282.528,132.135 283.636,132.300 283.738 C 132.465 283.840,132.546 283.086,132.480 282.062 C 132.293 279.141,132.097 278.786,132.046 281.276 M107.766 287.600 C 107.766 291.670,107.825 293.335,107.898 291.300 C 107.971 289.265,107.971 285.935,107.898 283.900 C 107.825 281.865,107.766 283.530,107.766 287.600 M245.544 281.176 C 246.064 281.629,246.679 282.000,246.911 282.000 C 247.403 282.000,247.379 281.980,245.800 281.055 L 244.600 280.353 245.544 281.176 M97.364 287.400 C 97.363 291.140,97.423 292.724,97.497 290.920 C 97.571 289.115,97.572 286.055,97.498 284.120 C 97.425 282.184,97.364 283.660,97.364 287.400 M117.701 284.200 C 117.705 285.080,117.787 285.393,117.883 284.895 C 117.979 284.398,117.975 283.678,117.875 283.295 C 117.775 282.913,117.696 283.320,117.701 284.200 M238.200 288.588 C 238.860 289.129,239.570 289.578,239.778 289.586 C 239.985 289.594,239.545 289.150,238.800 288.600 C 237.057 287.314,236.635 287.305,238.200 288.588 M200.596 290.807 C 200.458 291.030,200.194 291.120,200.010 291.006 C 199.825 290.892,199.768 291.157,199.883 291.595 C 200.127 292.531,200.616 292.346,200.914 291.206 C 201.142 290.335,200.999 290.155,200.596 290.807 M325.600 291.315 C 325.600 291.885,326.555 293.600,326.873 293.600 C 327.063 293.600,326.909 293.105,326.530 292.500 C 325.632 291.064,325.600 291.023,325.600 291.315 M61.549 294.300 C 61.072 294.909,61.078 294.940,61.600 294.543 C 61.930 294.292,62.560 293.998,63.000 293.889 C 63.760 293.703,63.757 293.690,62.949 293.646 C 62.481 293.621,61.851 293.915,61.549 294.300 M237.983 295.500 L 236.200 297.400 238.015 295.700 C 240.028 293.815,240.551 293.675,241.769 294.700 C 242.599 295.399,242.599 295.399,241.838 294.500 C 240.724 293.184,239.975 293.378,237.983 295.500 M289.877 294.374 C 289.989 294.800,290.467 295.475,290.940 295.874 C 291.792 296.594,291.794 296.593,291.100 295.769 C 290.715 295.311,290.400 294.737,290.400 294.492 C 290.400 294.247,290.237 293.946,290.037 293.823 C 289.838 293.700,289.766 293.947,289.877 294.374 M132.088 299.420 C 132.029 303.206,131.838 305.229,131.503 305.620 C 131.182 305.994,131.257 305.978,131.715 305.574 C 132.341 305.020,132.409 304.303,132.300 299.374 L 132.175 293.800 132.088 299.420 M57.270 298.126 C 56.174 299.292,56.179 299.689,57.300 300.638 C 58.199 301.399,58.199 301.399,57.500 300.569 C 56.600 299.500,56.618 299.245,57.670 298.126 C 58.148 297.617,58.449 297.200,58.339 297.200 C 58.229 297.200,57.748 297.617,57.270 298.126 M235.600 301.400 C 236.346 302.170,237.047 302.800,237.157 302.800 C 237.267 302.800,236.746 302.170,236.000 301.400 C 235.254 300.630,234.553 300.000,234.443 300.000 C 234.333 300.000,234.854 300.630,235.600 301.400 M90.400 302.200 C 91.146 302.970,91.847 303.600,91.957 303.600 C 92.067 303.600,91.546 302.970,90.800 302.200 C 90.054 301.430,89.353 300.800,89.243 300.800 C 89.133 300.800,89.654 301.430,90.400 302.200 M344.064 303.677 C 344.020 304.703,343.728 305.345,343.111 305.777 C 342.622 306.120,342.414 306.400,342.649 306.400 C 343.581 306.400,344.456 304.875,344.292 303.537 L 344.128 302.200 344.064 303.677 M275.967 304.396 C 275.866 305.000,275.485 305.448,275.000 305.535 C 274.560 305.613,274.051 305.818,273.870 305.989 C 273.688 306.160,273.997 306.213,274.557 306.106 C 275.818 305.865,276.519 305.067,276.300 304.119 C 276.174 303.570,276.095 303.636,275.967 304.396 M220.500 305.600 C 220.600 305.969,221.188 306.222,222.031 306.256 C 223.285 306.308,223.299 306.297,222.201 306.120 C 221.542 306.014,220.853 305.719,220.671 305.464 C 220.447 305.151,220.391 305.195,220.500 305.600 M65.600 305.994 C 65.930 306.211,66.635 306.391,67.167 306.394 C 68.451 306.402,68.125 306.175,66.400 305.858 C 65.415 305.677,65.178 305.718,65.600 305.994 M70.900 306.276 C 71.285 306.376,71.915 306.376,72.300 306.276 C 72.685 306.175,72.370 306.093,71.600 306.093 C 70.830 306.093,70.515 306.175,70.900 306.276 M128.300 306.282 C 128.795 306.378,129.605 306.378,130.100 306.282 C 130.595 306.187,130.190 306.109,129.200 306.109 C 128.210 306.109,127.805 306.187,128.300 306.282 M248.305 306.283 C 248.802 306.379,249.522 306.375,249.905 306.275 C 250.287 306.175,249.880 306.096,249.000 306.101 C 248.120 306.105,247.807 306.187,248.305 306.283 M316.500 306.276 C 316.885 306.376,317.515 306.376,317.900 306.276 C 318.285 306.175,317.970 306.093,317.200 306.093 C 316.430 306.093,316.115 306.175,316.500 306.276 M101.700 306.687 C 102.305 306.778,103.295 306.778,103.900 306.687 C 104.505 306.595,104.010 306.520,102.800 306.520 C 101.590 306.520,101.095 306.595,101.700 306.687 M295.505 306.683 C 296.002 306.779,296.722 306.775,297.105 306.675 C 297.487 306.575,297.080 306.496,296.200 306.501 C 295.320 306.505,295.007 306.587,295.505 306.683 " stroke="none" fill="#dae6ec" fill-rule="evenodd"></path><path id="path4" d="M109.000 77.096 C 158.686 77.370,194.706 77.371,194.538 77.100 C 194.436 76.935,170.918 76.843,142.276 76.896 C 113.634 76.949,98.660 77.039,109.000 77.096 M197.384 77.300 C 197.280 77.575,197.240 96.250,197.297 118.800 L 197.400 159.800 197.600 118.300 C 197.710 95.475,197.749 76.800,197.687 76.800 C 197.626 76.800,197.489 77.025,197.384 77.300 M84.600 77.600 C 83.581 78.038,84.632 78.038,86.000 77.600 C 86.804 77.343,86.843 77.277,86.200 77.268 C 85.760 77.262,85.040 77.411,84.600 77.600 M223.793 118.600 C 223.793 141.260,223.841 150.471,223.900 139.069 C 223.959 127.668,223.959 109.128,223.900 97.869 C 223.841 86.611,223.793 95.940,223.793 118.600 M343.793 118.800 C 343.793 141.570,343.841 150.885,343.900 139.500 C 343.959 128.115,343.959 109.485,343.900 98.100 C 343.841 86.715,343.793 96.030,343.793 118.800 M252.592 117.600 C 252.592 139.490,252.641 148.445,252.700 137.500 C 252.759 126.555,252.759 108.645,252.700 97.700 C 252.641 86.755,252.592 95.710,252.592 117.600 M317.293 81.600 C 317.293 82.370,317.375 82.685,317.476 82.300 C 317.576 81.915,317.576 81.285,317.476 80.900 C 317.375 80.515,317.293 80.830,317.293 81.600 M66.386 87.100 L 64.200 89.400 66.591 87.200 C 67.906 85.990,69.061 84.955,69.157 84.900 C 69.254 84.845,69.162 84.800,68.953 84.800 C 68.744 84.800,67.589 85.835,66.386 87.100 M120.700 103.100 C 134.175 103.158,156.225 103.158,169.700 103.100 C 183.175 103.042,172.150 102.994,145.200 102.994 C 118.250 102.994,107.225 103.042,120.700 103.100 M120.900 105.900 C 134.265 105.958,156.135 105.958,169.500 105.900 C 182.865 105.842,171.930 105.794,145.200 105.794 C 118.470 105.794,107.535 105.842,120.900 105.900 M57.331 109.800 C 57.333 111.340,57.405 111.921,57.492 111.091 C 57.579 110.261,57.577 109.001,57.489 108.291 C 57.400 107.581,57.329 108.260,57.331 109.800 M85.056 111.684 C 84.921 112.188,84.830 113.230,84.852 114.000 C 84.886 115.134,84.962 114.989,85.252 113.239 C 85.620 111.025,85.496 110.043,85.056 111.684 M92.200 126.400 C 93.059 127.280,93.852 128.000,93.962 128.000 C 94.072 128.000,93.459 127.280,92.600 126.400 C 91.741 125.520,90.948 124.800,90.838 124.800 C 90.728 124.800,91.341 125.520,92.200 126.400 M97.183 131.300 C 98.164 132.345,99.019 133.200,99.083 133.200 C 99.384 133.200,99.066 132.841,97.300 131.183 L 95.400 129.400 97.183 131.300 M150.929 130.300 C 159.031 130.360,172.171 130.360,180.129 130.300 C 188.088 130.239,181.460 130.190,165.400 130.190 C 149.340 130.190,142.828 130.239,150.929 130.300 M146.400 141.800 C 148.923 144.330,151.077 146.400,151.187 146.400 C 151.297 146.400,149.323 144.330,146.800 141.800 C 144.277 139.270,142.123 137.200,142.013 137.200 C 141.903 137.200,143.877 139.270,146.400 141.800 M108.200 142.400 C 109.059 143.280,109.852 144.000,109.962 144.000 C 110.072 144.000,109.459 143.280,108.600 142.400 C 107.741 141.520,106.948 140.800,106.838 140.800 C 106.728 140.800,107.341 141.520,108.200 142.400 M75.000 145.200 C 75.859 146.080,76.652 146.800,76.762 146.800 C 76.872 146.800,76.259 146.080,75.400 145.200 C 74.541 144.320,73.748 143.600,73.638 143.600 C 73.528 143.600,74.141 144.320,75.000 145.200 M113.183 147.300 C 114.841 149.066,115.200 149.384,115.200 149.083 C 115.200 149.019,114.345 148.164,113.300 147.183 L 111.400 145.400 113.183 147.300 M317.320 158.400 C 317.320 159.610,317.395 160.105,317.487 159.500 C 317.578 158.895,317.578 157.905,317.487 157.300 C 317.395 156.695,317.320 157.190,317.320 158.400 M124.200 158.400 C 125.059 159.280,125.852 160.000,125.962 160.000 C 126.072 160.000,125.459 159.280,124.600 158.400 C 123.741 157.520,122.948 156.800,122.838 156.800 C 122.728 156.800,123.341 157.520,124.200 158.400 M226.501 160.600 C 226.505 161.480,226.587 161.793,226.683 161.295 C 226.779 160.798,226.775 160.078,226.675 159.695 C 226.575 159.313,226.496 159.720,226.501 160.600 M129.183 163.300 C 130.164 164.345,131.019 165.200,131.083 165.200 C 131.384 165.200,131.066 164.841,129.300 163.183 L 127.400 161.400 129.183 163.300 M168.600 163.600 C 169.459 164.480,170.252 165.200,170.362 165.200 C 170.472 165.200,169.859 164.480,169.000 163.600 C 168.141 162.720,167.348 162.000,167.238 162.000 C 167.128 162.000,167.741 162.720,168.600 163.600 M112.804 182.727 C 123.692 193.687,132.870 202.785,133.200 202.944 C 133.530 203.103,124.711 194.136,113.601 183.017 C 102.492 171.898,93.314 162.800,93.206 162.800 C 93.098 162.800,101.917 171.767,112.804 182.727 M282.187 168.900 L 279.800 171.400 282.300 169.013 C 283.675 167.699,284.800 166.574,284.800 166.513 C 284.800 166.217,284.405 166.578,282.187 168.900 M136.783 170.900 C 137.764 171.945,138.619 172.800,138.683 172.800 C 138.984 172.800,138.666 172.441,136.900 170.783 L 135.000 169.000 136.783 170.900 M342.200 170.800 C 342.048 171.491,342.007 172.141,342.109 172.242 C 342.211 172.344,342.409 171.853,342.550 171.150 C 342.883 169.483,342.560 169.160,342.200 170.800 M142.783 176.900 C 143.764 177.945,144.619 178.800,144.683 178.800 C 144.984 178.800,144.666 178.441,142.900 176.783 L 141.000 175.000 142.783 176.900 M148.783 182.900 C 149.764 183.945,150.619 184.800,150.683 184.800 C 150.984 184.800,150.666 184.441,148.900 182.783 L 147.000 181.000 148.783 182.900 M190.793 185.300 C 193.099 187.665,195.034 189.600,195.093 189.600 C 195.382 189.600,194.894 189.087,190.900 185.193 L 186.600 181.000 190.793 185.300 M152.783 186.900 C 153.764 187.945,154.619 188.800,154.683 188.800 C 154.984 188.800,154.666 188.441,152.900 186.783 L 151.000 185.000 152.783 186.900 M236.200 187.600 C 237.059 188.480,237.852 189.200,237.962 189.200 C 238.072 189.200,237.459 188.480,236.600 187.600 C 235.741 186.720,234.948 186.000,234.838 186.000 C 234.728 186.000,235.341 186.720,236.200 187.600 M158.783 192.900 C 160.441 194.666,160.800 194.984,160.800 194.683 C 160.800 194.619,159.945 193.764,158.900 192.783 L 157.000 191.000 158.783 192.900 M296.575 195.300 L 295.400 196.600 296.700 195.425 C 297.415 194.779,298.000 194.194,298.000 194.125 C 298.000 193.816,297.670 194.088,296.575 195.300 M164.783 198.900 C 166.441 200.666,166.800 200.984,166.800 200.683 C 166.800 200.619,165.945 199.764,164.900 198.783 L 163.000 197.000 164.783 198.900 M246.800 197.325 C 246.800 197.394,247.385 197.979,248.100 198.625 L 249.400 199.800 248.225 198.500 C 247.130 197.288,246.800 197.016,246.800 197.325 M290.778 200.700 L 289.400 202.200 290.900 200.822 C 292.296 199.538,292.584 199.200,292.278 199.200 C 292.212 199.200,291.537 199.875,290.778 200.700 M254.600 201.200 C 255.459 202.080,256.252 202.800,256.362 202.800 C 256.472 202.800,255.859 202.080,255.000 201.200 C 254.141 200.320,253.348 199.600,253.238 199.600 C 253.128 199.600,253.741 200.320,254.600 201.200 M250.839 201.300 C 250.935 201.355,251.820 202.120,252.806 203.000 L 254.600 204.600 253.019 202.900 C 252.149 201.965,251.264 201.200,251.052 201.200 C 250.840 201.200,250.744 201.245,250.839 201.300 M169.200 203.400 C 169.946 204.170,170.647 204.800,170.757 204.800 C 170.867 204.800,170.346 204.170,169.600 203.400 C 168.854 202.630,168.153 202.000,168.043 202.000 C 167.933 202.000,168.454 202.630,169.200 203.400 M323.988 205.100 L 321.400 207.800 324.100 205.212 C 325.585 203.788,326.800 202.573,326.800 202.512 C 326.800 202.217,326.393 202.592,323.988 205.100 M216.600 204.800 C 217.459 205.680,218.252 206.400,218.362 206.400 C 218.472 206.400,217.859 205.680,217.000 204.800 C 216.141 203.920,215.348 203.200,215.238 203.200 C 215.128 203.200,215.741 203.920,216.600 204.800 M284.800 206.200 C 283.828 207.190,283.123 208.000,283.233 208.000 C 283.343 208.000,284.228 207.190,285.200 206.200 C 286.172 205.210,286.877 204.400,286.767 204.400 C 286.657 204.400,285.772 205.210,284.800 206.200 M258.783 208.500 C 259.764 209.545,260.619 210.400,260.683 210.400 C 260.984 210.400,260.666 210.041,258.900 208.383 L 257.000 206.600 258.783 208.500 M56.514 209.400 C 56.517 210.500,56.595 210.903,56.687 210.295 C 56.779 209.686,56.777 208.786,56.682 208.295 C 56.587 207.803,56.511 208.300,56.514 209.400 M278.175 208.900 L 277.000 210.200 278.300 209.025 C 279.015 208.379,279.600 207.794,279.600 207.725 C 279.600 207.416,279.270 207.688,278.175 208.900 M263.200 208.961 C 264.347 210.246,269.600 214.968,269.600 214.714 C 269.600 214.621,267.935 213.037,265.900 211.193 C 263.865 209.349,262.650 208.345,263.200 208.961 M276.981 213.700 L 275.400 215.400 277.100 213.819 C 278.681 212.348,278.984 212.000,278.681 212.000 C 278.616 212.000,277.851 212.765,276.981 213.700 M263.200 212.525 C 263.200 212.594,263.785 213.179,264.500 213.825 L 265.800 215.000 264.625 213.700 C 263.530 212.488,263.200 212.216,263.200 212.525 M303.991 224.300 L 300.600 227.800 304.100 224.409 C 307.351 221.259,307.782 220.800,307.491 220.800 C 307.431 220.800,305.856 222.375,303.991 224.300 M56.978 243.000 C 56.979 250.040,57.033 252.864,57.099 249.275 C 57.166 245.686,57.166 239.926,57.099 236.475 C 57.033 233.024,56.978 235.960,56.978 243.000 M244.800 232.525 C 244.800 232.594,245.385 233.179,246.100 233.825 L 247.400 235.000 246.225 233.700 C 245.130 232.488,244.800 232.216,244.800 232.525 M284.378 243.100 L 283.000 244.600 284.500 243.222 C 285.325 242.463,286.000 241.788,286.000 241.722 C 286.000 241.416,285.662 241.704,284.378 243.100 M260.000 246.600 C 260.746 247.370,261.447 248.000,261.557 248.000 C 261.667 248.000,261.146 247.370,260.400 246.600 C 259.654 245.830,258.953 245.200,258.843 245.200 C 258.733 245.200,259.254 245.830,260.000 246.600 M272.575 254.500 L 271.400 255.800 272.700 254.625 C 273.415 253.979,274.000 253.394,274.000 253.325 C 274.000 253.016,273.670 253.288,272.575 254.500 M86.900 256.300 C 103.125 256.358,129.675 256.358,145.900 256.300 C 162.125 256.242,148.850 256.195,116.400 256.195 C 83.950 256.195,70.675 256.242,86.900 256.300 M275.600 287.680 C 275.490 297.514,275.537 305.423,275.704 305.256 C 275.872 305.089,275.962 297.042,275.904 287.376 L 275.800 269.800 275.600 287.680 M314.584 287.600 C 314.584 297.390,314.636 301.395,314.700 296.500 C 314.763 291.605,314.763 283.595,314.700 278.700 C 314.636 273.805,314.584 277.810,314.584 287.600 M343.784 287.600 C 343.784 297.390,343.836 301.395,343.900 296.500 C 343.963 291.605,343.963 283.595,343.900 278.700 C 343.836 273.805,343.784 277.810,343.784 287.600 M237.578 272.700 L 236.200 274.200 237.700 272.822 C 239.096 271.538,239.384 271.200,239.078 271.200 C 239.012 271.200,238.337 271.875,237.578 272.700 M306.400 272.600 C 307.146 273.370,307.847 274.000,307.957 274.000 C 308.067 274.000,307.546 273.370,306.800 272.600 C 306.054 271.830,305.353 271.200,305.243 271.200 C 305.133 271.200,305.654 271.830,306.400 272.600 M90.378 273.100 L 89.000 274.600 90.500 273.222 C 91.896 271.938,92.184 271.600,91.878 271.600 C 91.812 271.600,91.137 272.275,90.378 273.100 M113.200 271.725 C 113.200 271.794,113.785 272.379,114.500 273.025 L 115.800 274.200 114.625 272.900 C 113.530 271.688,113.200 271.416,113.200 271.725 M258.800 273.051 C 259.570 273.937,260.257 274.620,260.328 274.570 C 260.597 274.376,259.477 272.966,258.462 272.220 C 257.581 271.574,257.639 271.716,258.800 273.051 M81.250 273.000 C 81.828 273.660,82.398 274.470,82.519 274.800 C 82.707 275.317,82.741 275.313,82.768 274.775 C 82.786 274.431,82.215 273.621,81.500 272.975 L 80.200 271.800 81.250 273.000 M131.999 278.700 C 131.999 278.865,133.934 278.953,136.299 278.895 C 143.985 278.707,144.733 278.550,138.300 278.474 C 134.835 278.433,132.000 278.535,131.999 278.700 M155.107 278.690 C 155.826 278.779,156.906 278.777,157.507 278.686 C 158.108 278.595,157.520 278.522,156.200 278.524 C 154.880 278.526,154.388 278.601,155.107 278.690 M170.894 291.700 L 170.989 305.000 171.100 291.927 L 171.211 278.854 172.105 278.682 C 172.866 278.535,172.835 278.501,171.900 278.454 L 170.800 278.400 170.894 291.700 M234.493 280.000 C 234.493 280.770,234.575 281.085,234.676 280.700 C 234.776 280.315,234.776 279.685,234.676 279.300 C 234.575 278.915,234.493 279.230,234.493 280.000 M310.169 287.000 C 310.170 291.620,310.228 293.455,310.299 291.078 C 310.370 288.701,310.369 284.921,310.298 282.678 C 310.227 280.435,310.169 282.380,310.169 287.000 M161.292 292.020 C 161.186 307.056,160.899 306.031,165.180 305.927 L 168.200 305.853 165.000 305.627 L 161.800 305.400 161.592 292.200 L 161.384 279.000 161.292 292.020 M87.368 287.400 C 87.368 291.800,87.426 293.655,87.498 291.521 C 87.570 289.388,87.570 285.788,87.499 283.521 C 87.427 281.255,87.368 283.000,87.368 287.400 M96.979 280.940 C 96.849 281.457,96.801 284.769,96.872 288.299 C 97.009 295.161,97.186 295.764,99.396 296.881 C 99.838 297.105,99.570 296.748,98.800 296.088 L 97.400 294.888 97.400 287.444 C 97.400 279.747,97.375 279.363,96.979 280.940 M300.563 287.600 C 300.563 291.230,300.623 292.715,300.698 290.900 C 300.772 289.085,300.772 286.115,300.698 284.300 C 300.623 282.485,300.563 283.970,300.563 287.600 M131.999 284.082 C 132.000 284.237,135.051 284.417,138.781 284.482 C 142.511 284.547,145.436 284.474,145.281 284.320 C 144.909 283.950,131.999 283.718,131.999 284.082 M117.728 288.000 C 117.728 289.430,117.801 290.015,117.889 289.300 C 117.978 288.585,117.978 287.415,117.889 286.700 C 117.801 285.985,117.728 286.570,117.728 288.000 M323.912 294.748 C 324.069 306.197,324.226 306.863,324.428 296.925 C 324.533 291.773,324.443 288.067,324.200 287.473 C 323.919 286.788,323.834 288.961,323.912 294.748 M117.693 293.200 C 117.693 293.970,117.775 294.285,117.876 293.900 C 117.976 293.515,117.976 292.885,117.876 292.500 C 117.775 292.115,117.693 292.430,117.693 293.200 M200.292 292.242 C 200.131 292.402,200.005 292.908,200.012 293.367 C 200.023 294.136,200.056 294.145,200.440 293.485 C 200.888 292.716,200.773 291.760,200.292 292.242 M250.848 293.400 C 251.204 293.840,251.595 294.470,251.716 294.800 C 251.903 295.309,251.942 295.304,251.968 294.762 C 251.986 294.411,251.595 293.781,251.100 293.362 C 250.208 292.606,250.206 292.607,250.848 293.400 M58.981 296.900 L 57.400 298.600 59.100 297.019 C 60.681 295.548,60.984 295.200,60.681 295.200 C 60.616 295.200,59.851 295.965,58.981 296.900 M235.270 298.126 C 234.328 299.128,234.172 299.812,234.795 300.197 C 235.025 300.339,235.088 300.172,234.945 299.800 C 234.798 299.418,235.070 298.764,235.619 298.180 C 236.125 297.641,236.449 297.200,236.339 297.200 C 236.229 297.200,235.748 297.617,235.270 298.126 M115.599 300.500 C 115.010 301.304,114.913 301.584,115.345 301.233 C 116.001 300.700,116.993 299.200,116.689 299.200 C 116.613 299.200,116.122 299.785,115.599 300.500 M80.575 301.700 L 79.400 303.000 80.700 301.825 C 81.912 300.730,82.184 300.400,81.875 300.400 C 81.806 300.400,81.221 300.985,80.575 301.700 M283.200 302.200 C 283.946 302.970,284.647 303.600,284.757 303.600 C 284.867 303.600,284.346 302.970,283.600 302.200 C 282.854 301.430,282.153 300.800,282.043 300.800 C 281.933 300.800,282.454 301.430,283.200 302.200 M125.513 305.895 C 126.676 305.976,128.476 305.976,129.513 305.893 C 130.551 305.811,129.600 305.745,127.400 305.746 C 125.200 305.747,124.351 305.814,125.513 305.895 M222.915 305.896 C 224.188 305.976,226.168 305.975,227.315 305.894 C 228.462 305.814,227.420 305.749,225.000 305.750 C 222.580 305.751,221.642 305.816,222.915 305.896 M268.912 305.895 C 269.964 305.977,271.584 305.976,272.512 305.892 C 273.440 305.808,272.580 305.741,270.600 305.742 C 268.620 305.743,267.860 305.812,268.912 305.895 M317.500 305.895 C 318.655 305.976,320.545 305.976,321.700 305.895 C 322.855 305.814,321.910 305.748,319.600 305.748 C 317.290 305.748,316.345 305.814,317.500 305.895 M337.100 305.895 C 338.255 305.976,340.145 305.976,341.300 305.895 C 342.455 305.814,341.510 305.748,339.200 305.748 C 336.890 305.748,335.945 305.814,337.100 305.895 M68.500 306.276 C 68.885 306.376,69.515 306.376,69.900 306.276 C 70.285 306.175,69.970 306.093,69.200 306.093 C 68.430 306.093,68.115 306.175,68.500 306.276 M245.700 306.276 C 246.085 306.376,246.715 306.376,247.100 306.276 C 247.485 306.175,247.170 306.093,246.400 306.093 C 245.630 306.093,245.315 306.175,245.700 306.276 " stroke="none" fill="#222" fill-rule="evenodd"></path></g></svg>